{
  "extensionsUsed": [
    "KHR_materials_specular",
    "KHR_materials_ior",
    "KHR_materials_unlit",
    "HYPAR_info"
  ],
  "accessors": [
    {
      "bufferView": 0,
      "componentType": 5126,
      "count": 24,
      "type": "VEC3",
      "max": [
        40.164963,
        57.71043,
        5.1816
      ],
      "min": [
        40.114964,
        32.22068,
        0.0
      ]
    },
    {
      "bufferView": 1,
      "componentType": 5126,
      "count": 24,
      "type": "VEC3",
      "max": [
        1.0,
        1.0,
        1.0
      ],
      "min": [
        -1.0,
        -1.0,
        -1.0
      ]
    },
    {
      "bufferView": 2,
      "componentType": 5123,
      "count": 36,
      "type": "SCALAR",
      "max": [
        23.0
      ],
      "min": [
        0.0
      ]
    },
    {
      "bufferView": 3,
      "componentType": 5126,
      "count": 24,
      "type": "VEC2",
      "max": [
        57.71043,
        57.71043
      ],
      "min": [
        -57.71043,
        0.0
      ]
    },
    {
      "bufferView": 4,
      "componentType": 5126,
      "count": 24,
      "type": "VEC3",
      "max": [
        40.17496,
        57.71043,
        0.035
      ],
      "min": [
        40.10496,
        32.22068,
        -0.035
      ]
    },
    {
      "bufferView": 5,
      "componentType": 5126,
      "count": 24,
      "type": "VEC3",
      "max": [
        1.0,
        1.0,
        1.0
      ],
      "min": [
        -1.0,
        -1.0,
        -1.0
      ]
    },
    {
      "bufferView": 6,
      "componentType": 5123,
      "count": 36,
      "type": "SCALAR",
      "max": [
        23.0
      ],
      "min": [
        0.0
      ]
    },
    {
      "bufferView": 7,
      "componentType": 5126,
      "count": 24,
      "type": "VEC2",
      "max": [
        57.71043,
        57.71043
      ],
      "min": [
        -57.71043,
        -0.035
      ]
    },
    {
      "bufferView": 8,
      "componentType": 5126,
      "count": 24,
      "type": "VEC3",
      "max": [
        0.035,
        0.035,
        2.7
      ],
      "min": [
        -0.035,
        -0.035,
        0.0
      ]
    },
    {
      "bufferView": 9,
      "componentType": 5126,
      "count": 24,
      "type": "VEC3",
      "max": [
        1.0,
        1.0,
        1.0
      ],
      "min": [
        -1.0,
        -1.0,
        -1.0
      ]
    },
    {
      "bufferView": 10,
      "componentType": 5123,
      "count": 36,
      "type": "SCALAR",
      "max": [
        23.0
      ],
      "min": [
        0.0
      ]
    },
    {
      "bufferView": 11,
      "componentType": 5126,
      "count": 24,
      "type": "VEC2",
      "max": [
        0.035,
        2.7
      ],
      "min": [
        -0.035,
        -0.035
      ]
    },
    {
      "bufferView": 12,
      "componentType": 5126,
      "count": 24,
      "type": "VEC3",
      "max": [
        40.239964,
        57.71043,
        2.4816
      ],
      "min": [
        40.039963,
        32.22068,
        0.0
      ]
    },
    {
      "bufferView": 13,
      "componentType": 5126,
      "count": 24,
      "type": "VEC3",
      "max": [
        1.0,
        1.0,
        1.0
      ],
      "min": [
        -1.0,
        -1.0,
        -1.0
      ]
    },
    {
      "bufferView": 14,
      "componentType": 5123,
      "count": 36,
      "type": "SCALAR",
      "max": [
        23.0
      ],
      "min": [
        0.0
      ]
    },
    {
      "bufferView": 15,
      "componentType": 5126,
      "count": 24,
      "type": "VEC2",
      "max": [
        57.71043,
        57.71043
      ],
      "min": [
        -57.71043,
        0.0
      ]
    },
    {
      "bufferView": 16,
      "componentType": 5126,
      "count": 24,
      "type": "VEC3",
      "max": [
        40.239964,
        22.22068,
        5.1816
      ],
      "min": [
        40.039963,
        -3.26907,
        0.0
      ]
    },
    {
      "bufferView": 17,
      "componentType": 5126,
      "count": 24,
      "type": "VEC3",
      "max": [
        1.0,
        1.0,
        1.0
      ],
      "min": [
        -1.0,
        -1.0,
        -1.0
      ]
    },
    {
      "bufferView": 18,
      "componentType": 5123,
      "count": 36,
      "type": "SCALAR",
      "max": [
        23.0
      ],
      "min": [
        0.0
      ]
    },
    {
      "bufferView": 19,
      "componentType": 5126,
      "count": 24,
      "type": "VEC2",
      "max": [
        40.239964,
        22.22068
      ],
      "min": [
        -40.239964,
        -3.26907
      ]
    },
    {
      "bufferView": 20,
      "componentType": 5126,
      "count": 24,
      "type": "VEC3",
      "max": [
        49.23996,
        32.22068,
        5.1816
      ],
      "min": [
        49.03996,
        22.22068,
        0.0
      ]
    },
    {
      "bufferView": 21,
      "componentType": 5126,
      "count": 24,
      "type": "VEC3",
      "max": [
        1.0,
        1.0,
        1.0
      ],
      "min": [
        -1.0,
        -1.0,
        -1.0
      ]
    },
    {
      "bufferView": 22,
      "componentType": 5123,
      "count": 36,
      "type": "SCALAR",
      "max": [
        23.0
      ],
      "min": [
        0.0
      ]
    },
    {
      "bufferView": 23,
      "componentType": 5126,
      "count": 24,
      "type": "VEC2",
      "max": [
        49.23996,
        32.22068
      ],
      "min": [
        -49.23996,
        0.0
      ]
    },
    {
      "bufferView": 24,
      "componentType": 5126,
      "count": 24,
      "type": "VEC3",
      "max": [
        49.13996,
        32.32068,
        5.1816
      ],
      "min": [
        40.13996,
        32.12068,
        0.0
      ]
    },
    {
      "bufferView": 25,
      "componentType": 5126,
      "count": 24,
      "type": "VEC3",
      "max": [
        1.0,
        1.0,
        1.0
      ],
      "min": [
        -1.0,
        -1.0,
        -1.0
      ]
    },
    {
      "bufferView": 26,
      "componentType": 5123,
      "count": 36,
      "type": "SCALAR",
      "max": [
        23.0
      ],
      "min": [
        0.0
      ]
    },
    {
      "bufferView": 27,
      "componentType": 5126,
      "count": 24,
      "type": "VEC2",
      "max": [
        49.13996,
        32.32068
      ],
      "min": [
        -49.13996,
        -1.939673E-29
      ]
    },
    {
      "bufferView": 28,
      "componentType": 5126,
      "count": 24,
      "type": "VEC3",
      "max": [
        49.13996,
        22.32068,
        5.1816
      ],
      "min": [
        40.13996,
        22.12068,
        0.0
      ]
    },
    {
      "bufferView": 29,
      "componentType": 5126,
      "count": 24,
      "type": "VEC3",
      "max": [
        1.0,
        1.0,
        1.0
      ],
      "min": [
        -1.0,
        -1.0,
        -1.0
      ]
    },
    {
      "bufferView": 30,
      "componentType": 5123,
      "count": 36,
      "type": "SCALAR",
      "max": [
        23.0
      ],
      "min": [
        0.0
      ]
    },
    {
      "bufferView": 31,
      "componentType": 5126,
      "count": 24,
      "type": "VEC2",
      "max": [
        49.13996,
        22.32068
      ],
      "min": [
        -49.13996,
        -1.1292806E-27
      ]
    }
  ],
  "asset": {
    "generator": "hypar-gltf",
    "version": "2.0"
  },
  "buffers": [
    {
      "uri": "InteriorPartitionsTest_0.bin",
      "byteLength": 6720
    }
  ],
  "bufferViews": [
    {
      "buffer": 0,
      "byteLength": 288
    },
    {
      "buffer": 0,
      "byteOffset": 288,
      "byteLength": 288
    },
    {
      "buffer": 0,
      "byteOffset": 576,
      "byteLength": 72
    },
    {
      "buffer": 0,
      "byteOffset": 648,
      "byteLength": 192
    },
    {
      "buffer": 0,
      "byteOffset": 840,
      "byteLength": 288
    },
    {
      "buffer": 0,
      "byteOffset": 1128,
      "byteLength": 288
    },
    {
      "buffer": 0,
      "byteOffset": 1416,
      "byteLength": 72
    },
    {
      "buffer": 0,
      "byteOffset": 1488,
      "byteLength": 192
    },
    {
      "buffer": 0,
      "byteOffset": 1680,
      "byteLength": 288
    },
    {
      "buffer": 0,
      "byteOffset": 1968,
      "byteLength": 288
    },
    {
      "buffer": 0,
      "byteOffset": 2256,
      "byteLength": 72
    },
    {
      "buffer": 0,
      "byteOffset": 2328,
      "byteLength": 192
    },
    {
      "buffer": 0,
      "byteOffset": 2520,
      "byteLength": 288
    },
    {
      "buffer": 0,
      "byteOffset": 2808,
      "byteLength": 288
    },
    {
      "buffer": 0,
      "byteOffset": 3096,
      "byteLength": 72
    },
    {
      "buffer": 0,
      "byteOffset": 3168,
      "byteLength": 192
    },
    {
      "buffer": 0,
      "byteOffset": 3360,
      "byteLength": 288
    },
    {
      "buffer": 0,
      "byteOffset": 3648,
      "byteLength": 288
    },
    {
      "buffer": 0,
      "byteOffset": 3936,
      "byteLength": 72
    },
    {
      "buffer": 0,
      "byteOffset": 4008,
      "byteLength": 192
    },
    {
      "buffer": 0,
      "byteOffset": 4200,
      "byteLength": 288
    },
    {
      "buffer": 0,
      "byteOffset": 4488,
      "byteLength": 288
    },
    {
      "buffer": 0,
      "byteOffset": 4776,
      "byteLength": 72
    },
    {
      "buffer": 0,
      "byteOffset": 4848,
      "byteLength": 192
    },
    {
      "buffer": 0,
      "byteOffset": 5040,
      "byteLength": 288
    },
    {
      "buffer": 0,
      "byteOffset": 5328,
      "byteLength": 288
    },
    {
      "buffer": 0,
      "byteOffset": 5616,
      "byteLength": 72
    },
    {
      "buffer": 0,
      "byteOffset": 5688,
      "byteLength": 192
    },
    {
      "buffer": 0,
      "byteOffset": 5880,
      "byteLength": 288
    },
    {
      "buffer": 0,
      "byteOffset": 6168,
      "byteLength": 288
    },
    {
      "buffer": 0,
      "byteOffset": 6456,
      "byteLength": 72
    },
    {
      "buffer": 0,
      "byteOffset": 6528,
      "byteLength": 192
    }
  ],
  "materials": [
    {
      "name": "fe0c915f-c60c-4872-977f-041e1fbceed4",
      "extensions": {
        "KHR_materials_specular": {
          "specularFactor": 0.3,
          "specularColorFactor": [
            1.0,
            1.0,
            1.0
          ]
        },
        "KHR_materials_ior": {
          "ior": 1000
        }
      },
      "pbrMetallicRoughness": {
        "baseColorFactor": [
          0.44798842,
          0.44798842,
          0.44798842,
          0.3
        ],
        "metallicFactor": 0.0,
        "roughnessFactor": 0.39999998
      },
      "alphaMode": "BLEND"
    },
    {
      "name": "6b8fc445-5847-40a3-8ff3-461e97913cd5",
      "extensions": {
        "KHR_materials_specular": {
          "specularFactor": 0.1,
          "specularColorFactor": [
            1.0,
            1.0,
            1.0
          ]
        },
        "KHR_materials_ior": {
          "ior": 1000
        }
      },
      "pbrMetallicRoughness": {
        "baseColorFactor": [
          0.21404114,
          0.21404114,
          0.21404114,
          1.0
        ],
        "metallicFactor": 0.0,
        "roughnessFactor": 0.9
      }
    },
    {
      "name": "db97f11d-262a-431e-9c64-2eb9ff0004d2",
      "extensions": {
        "KHR_materials_specular": {
          "specularFactor": 0.01,
          "specularColorFactor": [
            1.0,
            1.0,
            1.0
          ]
        },
        "KHR_materials_ior": {
          "ior": 1000
        }
      },
      "pbrMetallicRoughness": {
        "baseColorFactor": [
          0.7874123,
          0.7874123,
          0.7874123,
          1.0
        ],
        "metallicFactor": 0.0,
        "roughnessFactor": 0.99
      }
    }
  ],
  "meshes": [
    {
      "primitives": [
        {
          "attributes": {
            "NORMAL": 1,
            "POSITION": 0,
            "TEXCOORD_0": 3
          },
          "indices": 2,
          "material": 0
        }
      ],
      "name": "88a3e925-84da-4fc3-abb5-d0802ef9c782_mesh"
    },
    {
      "primitives": [
        {
          "attributes": {
            "NORMAL": 5,
            "POSITION": 4,
            "TEXCOORD_0": 7
          },
          "indices": 6,
          "material": 1
        }
      ],
      "name": "b2dc5077-397f-4553-ae2c-3952757f9f3b_mesh"
    },
    {
      "primitives": [
        {
          "attributes": {
            "NORMAL": 9,
            "POSITION": 8,
            "TEXCOORD_0": 11
          },
          "indices": 10,
          "material": 1
        }
      ],
      "name": "62b02383-5825-4a90-85d0-01dd8a9f300e_mesh"
    },
    {
      "primitives": [
        {
          "attributes": {
            "NORMAL": 13,
            "POSITION": 12,
            "TEXCOORD_0": 15
          },
          "indices": 14,
          "material": 2
        }
      ],
      "name": "528376e7-b704-446d-b2f3-7ec4eb5d7a12_mesh"
    },
    {
      "primitives": [
        {
          "attributes": {
            "NORMAL": 17,
            "POSITION": 16,
            "TEXCOORD_0": 19
          },
          "indices": 18,
          "material": 2
        }
      ],
      "name": "89b650f7-8a60-4fe9-989c-ff445ffc3413_mesh"
    },
    {
      "primitives": [
        {
          "attributes": {
            "NORMAL": 21,
            "POSITION": 20,
            "TEXCOORD_0": 23
          },
          "indices": 22,
          "material": 2
        }
      ],
      "name": "62c0c7a4-8eb3-47fc-8224-e6086162c89a_mesh"
    },
    {
      "primitives": [
        {
          "attributes": {
            "NORMAL": 25,
            "POSITION": 24,
            "TEXCOORD_0": 27
          },
          "indices": 26,
          "material": 2
        }
      ],
      "name": "272487bd-c4b0-4708-8191-dee07a00f664_mesh"
    },
    {
      "primitives": [
        {
          "attributes": {
            "NORMAL": 29,
            "POSITION": 28,
            "TEXCOORD_0": 31
          },
          "indices": 30,
          "material": 2
        }
      ],
      "name": "68d315df-b63b-4c8c-8629-27bdd5986f6c_mesh"
    }
  ],
  "nodes": [
    {
      "children": [
        1,
        3,
        4,
        5,
        6,
        7,
        8,
        9,
        10,
        11,
        12,
        13,
        14,
        15,
        16,
        17,
        18,
        19,
        20,
        21,
        23,
        25,
        27,
        29
      ],
      "matrix": [
        1.0,
        0.0,
        0.0,
        0.0,
        0.0,
        6.123234E-17,
        -1.0,
        0.0,
        0.0,
        1.0,
        6.123234E-17,
        0.0,
        0.0,
        0.0,
        0.0,
        1.0
      ]
    },
    {
      "children": [
        2
      ],
      "extensions": {
        "HYPAR_info": {
          "id": "88a3e925-84da-4fc3-abb5-d0802ef9c782"
        }
      }
    },
    {
      "mesh": 0
    },
    {
      "mesh": 1,
      "extensions": {
        "HYPAR_info": {
          "id": "85bea2a7-0c81-40e2-851e-ee717df316bd"
        }
      }
    },
    {
      "matrix": [
        1.0,
        0.0,
        0.0,
        0.0,
        0.0,
        1.0,
        0.0,
        0.0,
        0.0,
        0.0,
        1.0,
        0.0,
        0.0,
        0.0,
        2.1,
        1.0
      ],
      "mesh": 1,
      "extensions": {
        "HYPAR_info": {
          "id": "412d9b53-a1a5-4345-809b-d287f9594f33"
        }
      }
    },
    {
      "matrix": [
        1.0,
        0.0,
        0.0,
        0.0,
        0.0,
        1.0,
        0.0,
        0.0,
        0.0,
        0.0,
        1.0,
        0.0,
        0.0,
        0.0,
        2.7,
        1.0
      ],
      "mesh": 1,
      "extensions": {
        "HYPAR_info": {
          "id": "c196014e-cfe0-4004-b90e-db1e0129b053"
        }
      }
    },
    {
      "matrix": [
        0.0,
        -1.0,
        0.0,
        0.0,
        1.0,
        0.0,
        0.0,
        0.0,
        0.0,
        0.0,
        1.0,
        0.0,
        40.13996,
        57.71043,
        0.0,
        1.0
      ],
      "mesh": 2,
      "extensions": {
        "HYPAR_info": {
          "id": "81c67415-3aaf-4c3b-ab88-071b4441c35e"
        }
      }
    },
    {
      "matrix": [
        0.0,
        -1.0,
        0.0,
        0.0,
        1.0,
        0.0,
        0.0,
        0.0,
        0.0,
        0.0,
        1.0,
        0.0,
        40.13996,
        57.31043,
        0.0,
        1.0
      ],
      "mesh": 2,
      "extensions": {
        "HYPAR_info": {
          "id": "dd1877d7-5007-4c68-961c-46efb7bfdbf4"
        }
      }
    },
    {
      "matrix": [
        0.0,
        -1.0,
        0.0,
        0.0,
        1.0,
        0.0,
        0.0,
        0.0,
        0.0,
        0.0,
        1.0,
        0.0,
        40.13996,
        56.41043,
        0.0,
        1.0
      ],
      "mesh": 2,
      "extensions": {
        "HYPAR_info": {
          "id": "5cfe49bf-521b-4e2c-896b-62b05c34199a"
        }
      }
    },
    {
      "matrix": [
        0.0,
        -1.0,
        0.0,
        0.0,
        1.0,
        0.0,
        0.0,
        0.0,
        0.0,
        0.0,
        1.0,
        0.0,
        40.13996,
        54.39462,
        0.0,
        1.0
      ],
      "mesh": 2,
      "extensions": {
        "HYPAR_info": {
          "id": "467fe3ba-2cbb-4d24-81c8-a0d08e6b5b16"
        }
      }
    },
    {
      "matrix": [
        0.0,
        -1.0,
        0.0,
        0.0,
        1.0,
        0.0,
        0.0,
        0.0,
        0.0,
        0.0,
        1.0,
        0.0,
        40.13996,
        52.378803,
        0.0,
        1.0
      ],
      "mesh": 2,
      "extensions": {
        "HYPAR_info": {
          "id": "8e3bf229-fa7b-4146-97aa-9240cf6f864b"
        }
      }
    },
    {
      "matrix": [
        0.0,
        -1.0,
        0.0,
        0.0,
        1.0,
        0.0,
        0.0,
        0.0,
        0.0,
        0.0,
        1.0,
        0.0,
        40.13996,
        50.36299,
        0.0,
        1.0
      ],
      "mesh": 2,
      "extensions": {
        "HYPAR_info": {
          "id": "4fd66e58-b647-4243-b5f7-831619f58c32"
        }
      }
    },
    {
      "matrix": [
        0.0,
        -1.0,
        0.0,
        0.0,
        1.0,
        0.0,
        0.0,
        0.0,
        0.0,
        0.0,
        1.0,
        0.0,
        40.13996,
        48.34718,
        0.0,
        1.0
      ],
      "mesh": 2,
      "extensions": {
        "HYPAR_info": {
          "id": "17febb21-3ab1-4f26-9e2b-86f43d103768"
        }
      }
    },
    {
      "matrix": [
        0.0,
        -1.0,
        0.0,
        0.0,
        1.0,
        0.0,
        0.0,
        0.0,
        0.0,
        0.0,
        1.0,
        0.0,
        40.13996,
        46.331367,
        0.0,
        1.0
      ],
      "mesh": 2,
      "extensions": {
        "HYPAR_info": {
          "id": "2790202c-4a70-4958-b6ee-bcfcee0a7a37"
        }
      }
    },
    {
      "matrix": [
        0.0,
        -1.0,
        0.0,
        0.0,
        1.0,
        0.0,
        0.0,
        0.0,
        0.0,
        0.0,
        1.0,
        0.0,
        40.13996,
        44.315556,
        0.0,
        1.0
      ],
      "mesh": 2,
      "extensions": {
        "HYPAR_info": {
          "id": "4ae15ddc-3682-4e22-9505-ad2873b28aa2"
        }
      }
    },
    {
      "matrix": [
        0.0,
        -1.0,
        0.0,
        0.0,
        1.0,
        0.0,
        0.0,
        0.0,
        0.0,
        0.0,
        1.0,
        0.0,
        40.13996,
        42.299744,
        0.0,
        1.0
      ],
      "mesh": 2,
      "extensions": {
        "HYPAR_info": {
          "id": "4fa5459e-9747-4cf0-903b-01088370605d"
        }
      }
    },
    {
      "matrix": [
        0.0,
        -1.0,
        0.0,
        0.0,
        1.0,
        0.0,
        0.0,
        0.0,
        0.0,
        0.0,
        1.0,
        0.0,
        40.13996,
        40.28393,
        0.0,
        1.0
      ],
      "mesh": 2,
      "extensions": {
        "HYPAR_info": {
          "id": "63a0a47b-2c79-4cc6-bdf6-7d8491197ba9"
        }
      }
    },
    {
      "matrix": [
        0.0,
        -1.0,
        0.0,
        0.0,
        1.0,
        0.0,
        0.0,
        0.0,
        0.0,
        0.0,
        1.0,
        0.0,
        40.13996,
        38.268116,
        0.0,
        1.0
      ],
      "mesh": 2,
      "extensions": {
        "HYPAR_info": {
          "id": "bccd8c1f-805f-4bf9-9603-342cd2fa4d0a"
        }
      }
    },
    {
      "matrix": [
        0.0,
        -1.0,
        0.0,
        0.0,
        1.0,
        0.0,
        0.0,
        0.0,
        0.0,
        0.0,
        1.0,
        0.0,
        40.13996,
        36.252304,
        0.0,
        1.0
      ],
      "mesh": 2,
      "extensions": {
        "HYPAR_info": {
          "id": "eddcdce6-eff0-45a9-9627-99520aecf0dc"
        }
      }
    },
    {
      "matrix": [
        0.0,
        -1.0,
        0.0,
        0.0,
        1.0,
        0.0,
        0.0,
        0.0,
        0.0,
        0.0,
        1.0,
        0.0,
        40.13996,
        34.236492,
        0.0,
        1.0
      ],
      "mesh": 2,
      "extensions": {
        "HYPAR_info": {
          "id": "a5f1484d-a174-408a-be9f-f2cd921c498e"
        }
      }
    },
    {
      "matrix": [
        0.0,
        -1.0,
        0.0,
        0.0,
        1.0,
        0.0,
        0.0,
        0.0,
        0.0,
        0.0,
        1.0,
        0.0,
        40.13996,
        32.22068,
        0.0,
        1.0
      ],
      "mesh": 2,
      "extensions": {
        "HYPAR_info": {
          "id": "cff206dc-8a63-4420-98a3-c6f7d38316e4"
        }
      }
    },
    {
      "children": [
        22
      ],
      "matrix": [
        1.0,
        0.0,
        0.0,
        0.0,
        0.0,
        1.0,
        0.0,
        0.0,
        0.0,
        0.0,
        1.0,
        0.0,
        0.0,
        0.0,
        2.7,
        1.0
      ],
      "extensions": {
        "HYPAR_info": {
          "id": "528376e7-b704-446d-b2f3-7ec4eb5d7a12"
        }
      }
    },
    {
      "mesh": 3
    },
    {
      "children": [
        24
      ],
      "extensions": {
        "HYPAR_info": {
          "id": "89b650f7-8a60-4fe9-989c-ff445ffc3413"
        }
      }
    },
    {
      "mesh": 4
    },
    {
      "children": [
        26
      ],
      "extensions": {
        "HYPAR_info": {
          "id": "62c0c7a4-8eb3-47fc-8224-e6086162c89a"
        }
      }
    },
    {
      "mesh": 5
    },
    {
      "children": [
        28
      ],
      "extensions": {
        "HYPAR_info": {
          "id": "272487bd-c4b0-4708-8191-dee07a00f664"
        }
      }
    },
    {
      "mesh": 6
    },
    {
      "children": [
        30
      ],
      "extensions": {
        "HYPAR_info": {
          "id": "68d315df-b63b-4c8c-8629-27bdd5986f6c"
        }
      }
    },
    {
      "mesh": 7
    }
  ],
  "scene": 0,
  "scenes": [
    {
      "nodes": [
        0
      ]
    }
  ]
}