{
  "extensionsUsed": [
    "KHR_materials_specular",
    "KHR_materials_ior",
    "KHR_materials_unlit",
    "HYPAR_info",
    "HYPAR_representation_info"
  ],
  "accessors": [
    {
      "bufferView": 0,
      "componentType": 5126,
      "count": 52,
      "type": "VEC3",
      "max": [
        15.91936,
        6.4122753,
        3.9
      ],
      "min": [
        15.76696,
        -0.006904805,
        0.0
      ]
    },
    {
      "bufferView": 1,
      "componentType": 5126,
      "count": 52,
      "type": "VEC3",
      "max": [
        1.0,
        1.0,
        1.0
      ],
      "min": [
        -1.0,
        -1.0,
        -1.0
      ]
    },
    {
      "bufferView": 2,
      "componentType": 5123,
      "count": 84,
      "type": "SCALAR",
      "max": [
        51.0
      ],
      "min": [
        0.0
      ]
    },
    {
      "bufferView": 3,
      "componentType": 5126,
      "count": 52,
      "type": "VEC2",
      "max": [
        15.91936,
        6.4122753
      ],
      "min": [
        -15.91936,
        -0.0762
      ]
    },
    {
      "bufferView": 4,
      "componentType": 5126,
      "count": 52,
      "type": "VEC3",
      "max": [
        15.91936,
        6.4122753,
        3.9
      ],
      "min": [
        15.76696,
        -0.006904805,
        0.0
      ]
    },
    {
      "bufferView": 5,
      "componentType": 5126,
      "count": 52,
      "type": "VEC3",
      "max": [
        1.0,
        1.0,
        1.0
      ],
      "min": [
        -1.0,
        -1.0,
        -1.0
      ]
    },
    {
      "bufferView": 6,
      "componentType": 5123,
      "count": 84,
      "type": "SCALAR",
      "max": [
        51.0
      ],
      "min": [
        0.0
      ]
    },
    {
      "bufferView": 7,
      "componentType": 5126,
      "count": 52,
      "type": "VEC2",
      "max": [
        15.91936,
        6.4122753
      ],
      "min": [
        -15.91936,
        -0.0762
      ]
    },
    {
      "bufferView": 8,
      "componentType": 5126,
      "count": 24,
      "type": "VEC3",
      "max": [
        19.96561,
        6.5646753,
        3.9
      ],
      "min": [
        15.76696,
        6.4122753,
        0.0
      ]
    },
    {
      "bufferView": 9,
      "componentType": 5126,
      "count": 24,
      "type": "VEC3",
      "max": [
        1.0,
        1.0,
        1.0
      ],
      "min": [
        -1.0,
        -1.0,
        -1.0
      ]
    },
    {
      "bufferView": 10,
      "componentType": 5123,
      "count": 36,
      "type": "SCALAR",
      "max": [
        23.0
      ],
      "min": [
        0.0
      ]
    },
    {
      "bufferView": 11,
      "componentType": 5126,
      "count": 24,
      "type": "VEC2",
      "max": [
        19.96561,
        6.5646753
      ],
      "min": [
        -19.96561,
        -1.8581498E-30
      ]
    },
    {
      "bufferView": 12,
      "componentType": 5126,
      "count": 24,
      "type": "VEC3",
      "max": [
        19.96561,
        6.5646753,
        3.9
      ],
      "min": [
        15.76696,
        6.4122753,
        0.0
      ]
    },
    {
      "bufferView": 13,
      "componentType": 5126,
      "count": 24,
      "type": "VEC3",
      "max": [
        1.0,
        1.0,
        1.0
      ],
      "min": [
        -1.0,
        -1.0,
        -1.0
      ]
    },
    {
      "bufferView": 14,
      "componentType": 5123,
      "count": 36,
      "type": "SCALAR",
      "max": [
        23.0
      ],
      "min": [
        0.0
      ]
    },
    {
      "bufferView": 15,
      "componentType": 5126,
      "count": 24,
      "type": "VEC2",
      "max": [
        19.96561,
        6.5646753
      ],
      "min": [
        -19.96561,
        -1.8581498E-30
      ]
    }
  ],
  "asset": {
    "generator": "hypar-gltf",
    "version": "2.0"
  },
  "buffers": [
    {
      "uri": "InteriorPartitionsTest_0.bin",
      "byteLength": 5344
    }
  ],
  "bufferViews": [
    {
      "buffer": 0,
      "byteLength": 624
    },
    {
      "buffer": 0,
      "byteOffset": 624,
      "byteLength": 624
    },
    {
      "buffer": 0,
      "byteOffset": 1248,
      "byteLength": 168
    },
    {
      "buffer": 0,
      "byteOffset": 1416,
      "byteLength": 416
    },
    {
      "buffer": 0,
      "byteOffset": 1832,
      "byteLength": 624
    },
    {
      "buffer": 0,
      "byteOffset": 2456,
      "byteLength": 624
    },
    {
      "buffer": 0,
      "byteOffset": 3080,
      "byteLength": 168
    },
    {
      "buffer": 0,
      "byteOffset": 3248,
      "byteLength": 416
    },
    {
      "buffer": 0,
      "byteOffset": 3664,
      "byteLength": 288
    },
    {
      "buffer": 0,
      "byteOffset": 3952,
      "byteLength": 288
    },
    {
      "buffer": 0,
      "byteOffset": 4240,
      "byteLength": 72
    },
    {
      "buffer": 0,
      "byteOffset": 4312,
      "byteLength": 192
    },
    {
      "buffer": 0,
      "byteOffset": 4504,
      "byteLength": 288
    },
    {
      "buffer": 0,
      "byteOffset": 4792,
      "byteLength": 288
    },
    {
      "buffer": 0,
      "byteOffset": 5080,
      "byteLength": 72
    },
    {
      "buffer": 0,
      "byteOffset": 5152,
      "byteLength": 192
    }
  ],
  "materials": [
    {
      "name": "f616193d-6cca-42bc-b0d8-ccdc4f457693",
      "extensions": {
        "KHR_materials_specular": {
          "specularFactor": 0.10000000149011612,
          "specularColorFactor": [
            1.0,
            1.0,
            1.0
          ]
        },
        "KHR_materials_ior": {
          "ior": 1000
        }
      },
      "pbrMetallicRoughness": {
        "baseColorFactor": [
          0.60382736,
          0.7874122,
          0.07323896,
          0.1
        ],
        "metallicFactor": 0.0,
        "roughnessFactor": 0.9
      },
      "alphaMode": "BLEND"
    },
    {
      "name": "331c0159-2f2b-4b98-b61d-4b5eca34f562",
      "extensions": {
        "KHR_materials_specular": {
          "specularFactor": 0.01,
          "specularColorFactor": [
            1.0,
            1.0,
            1.0
          ]
        },
        "KHR_materials_ior": {
          "ior": 1000
        }
      },
      "pbrMetallicRoughness": {
        "baseColorFactor": [
          0.7874123,
          0.7874123,
          0.7874123,
          1.0
        ],
        "metallicFactor": 0.0,
        "roughnessFactor": 0.99
      }
    }
  ],
  "meshes": [
    {
      "primitives": [
        {
          "attributes": {
            "POSITION": 0,
            "NORMAL": 1,
            "TEXCOORD_0": 3
          },
          "indices": 2,
          "material": 1
        }
      ],
      "name": "e683d5f2-8dd1-41dc-a462-a6ec5714e0ee_mesh"
    },
    {
      "primitives": [
        {
          "attributes": {
            "POSITION": 4,
            "NORMAL": 5,
            "TEXCOORD_0": 7
          },
          "indices": 6,
          "material": 1
        }
      ],
      "name": "e683d5f2-8dd1-41dc-a462-a6ec5714e0ee_mesh",
      "extensions": {
        "HYPAR_snapping_points": {
          "points": [
            {
              "points": [
                15.766959889984506,
                6.412275283599605,
                0.0,
                15.766959889984493,
                -0.006904805152410287,
                0.0,
                15.919359889984493,
                -0.0069048051524105815,
                0.0,
                15.919359889984506,
                6.412275283599605,
                0.0
              ],
              "edgeMode": 2
            },
            {
              "points": [
                15.766959889984506,
                6.412275283599605,
                3.9,
                15.766959889984493,
                -0.006904805152410287,
                3.9,
                15.919359889984493,
                -0.0069048051524105815,
                3.9,
                15.919359889984506,
                6.412275283599605,
                3.9
              ],
              "edgeMode": 2
            },
            {
              "points": [
                15.766959889984506,
                6.412275283599605,
                0.0,
                15.766959889984506,
                6.412275283599605,
                3.9,
                15.766959889984493,
                -0.006904805152410287,
                0.0,
                15.766959889984493,
                -0.006904805152410287,
                3.9,
                15.919359889984493,
                -0.0069048051524105815,
                0.0,
                15.919359889984493,
                -0.0069048051524105815,
                3.9,
                15.919359889984506,
                6.412275283599605,
                0.0,
                15.919359889984506,
                6.412275283599605,
                3.9
              ],
              "edgeMode": 1
            }
          ]
        }
      }
    },
    {
      "primitives": [
        {
          "attributes": {
            "POSITION": 8,
            "NORMAL": 9,
            "TEXCOORD_0": 11
          },
          "indices": 10,
          "material": 1
        }
      ],
      "name": "2f7b560a-fc29-4862-896d-253a43cc359c_mesh"
    },
    {
      "primitives": [
        {
          "attributes": {
            "POSITION": 12,
            "NORMAL": 13,
            "TEXCOORD_0": 15
          },
          "indices": 14,
          "material": 1
        }
      ],
      "name": "2f7b560a-fc29-4862-896d-253a43cc359c_mesh",
      "extensions": {
        "HYPAR_snapping_points": {
          "points": [
            {
              "points": [
                19.965609999999995,
                6.5646752835996125,
                0.0,
                15.766959889984506,
                6.564675283599605,
                0.0,
                15.766959889984506,
                6.412275283599605,
                0.0,
                19.965609999999995,
                6.412275283599612,
                0.0
              ],
              "edgeMode": 2
            },
            {
              "points": [
                19.965609999999995,
                6.5646752835996125,
                3.9,
                15.766959889984506,
                6.564675283599605,
                3.9,
                15.766959889984506,
                6.412275283599605,
                3.9,
                19.965609999999995,
                6.412275283599612,
                3.9
              ],
              "edgeMode": 2
            },
            {
              "points": [
                19.965609999999995,
                6.5646752835996125,
                0.0,
                19.965609999999995,
                6.5646752835996125,
                3.9,
                15.766959889984506,
                6.564675283599605,
                0.0,
                15.766959889984506,
                6.564675283599605,
                3.9,
                15.766959889984506,
                6.412275283599605,
                0.0,
                15.766959889984506,
                6.412275283599605,
                3.9,
                19.965609999999995,
                6.412275283599612,
                0.0,
                19.965609999999995,
                6.412275283599612,
                3.9
              ],
              "edgeMode": 1
            }
          ]
        }
      }
    }
  ],
  "nodes": [
    {
      "children": [
        1,
        3,
        5,
        7
      ],
      "matrix": [
        1.0,
        0.0,
        0.0,
        0.0,
        0.0,
        6.123234E-17,
        -1.0,
        0.0,
        0.0,
        1.0,
        6.123234E-17,
        0.0,
        0.0,
        0.0,
        0.0,
        1.0
      ]
    },
    {
      "children": [
        2
      ],
      "extensions": {
        "HYPAR_info": {
          "id": "e683d5f2-8dd1-41dc-a462-a6ec5714e0ee"
        }
      }
    },
    {
      "mesh": 0
    },
    {
      "children": [
        4
      ],
      "name": "e683d5f2-8dd1-41dc-a462-a6ec5714e0ee",
      "extensions": {
        "HYPAR_info": {
          "id": "e683d5f2-8dd1-41dc-a462-a6ec5714e0ee"
        }
      }
    },
    {
      "mesh": 1,
      "extensions": {
        "HYPAR_representation_info": {
          "isDefault": true,
          "representationType": [
            ""
          ],
          "mesh": 1
        },
        "HYPAR_info": {
          "id": "e683d5f2-8dd1-41dc-a462-a6ec5714e0ee"
        }
      }
    },
    {
      "children": [
        6
      ],
      "extensions": {
        "HYPAR_info": {
          "id": "2f7b560a-fc29-4862-896d-253a43cc359c"
        }
      }
    },
    {
      "mesh": 2
    },
    {
      "children": [
        8
      ],
      "name": "2f7b560a-fc29-4862-896d-253a43cc359c",
      "extensions": {
        "HYPAR_info": {
          "id": "2f7b560a-fc29-4862-896d-253a43cc359c"
        }
      }
    },
    {
      "mesh": 3,
      "extensions": {
        "HYPAR_representation_info": {
          "isDefault": true,
          "representationType": [
            ""
          ],
          "mesh": 3
        },
        "HYPAR_info": {
          "id": "2f7b560a-fc29-4862-896d-253a43cc359c"
        }
      }
    }
  ],
  "scene": 0,
  "scenes": [
    {
      "nodes": [
        0
      ]
    }
  ]
}