{
  "extensionsUsed": [
    "KHR_materials_specular",
    "KHR_materials_ior",
    "KHR_materials_unlit",
    "HYPAR_info"
  ],
  "accessors": [
    {
      "bufferView": 0,
      "componentType": 5126,
      "count": 24,
      "type": "VEC3",
      "max": [
        1.0,
        1.0,
        1.0
      ],
      "min": [
        0.0,
        0.0,
        0.0
      ]
    },
    {
      "bufferView": 1,
      "componentType": 5126,
      "count": 24,
      "type": "VEC3",
      "max": [
        1.0,
        1.0,
        1.0
      ],
      "min": [
        -1.0,
        -1.0,
        -1.0
      ]
    },
    {
      "bufferView": 2,
      "componentType": 5123,
      "count": 36,
      "type": "SCALAR",
      "max": [
        23.0
      ],
      "min": [
        0.0
      ]
    },
    {
      "bufferView": 3,
      "componentType": 5126,
      "count": 24,
      "type": "VEC2",
      "max": [
        1.0,
        1.0
      ],
      "min": [
        -1.0,
        0.0
      ]
    },
    {
      "bufferView": 4,
      "componentType": 5126,
      "count": 24,
      "type": "VEC3",
      "max": [
        1.0,
        1.0,
        1.0
      ],
      "min": [
        0.0,
        0.0,
        0.0
      ]
    },
    {
      "bufferView": 5,
      "componentType": 5126,
      "count": 24,
      "type": "VEC3",
      "max": [
        1.0,
        1.0,
        1.0
      ],
      "min": [
        -1.0,
        -1.0,
        -1.0
      ]
    },
    {
      "bufferView": 6,
      "componentType": 5123,
      "count": 36,
      "type": "SCALAR",
      "max": [
        23.0
      ],
      "min": [
        0.0
      ]
    },
    {
      "bufferView": 7,
      "componentType": 5126,
      "count": 24,
      "type": "VEC2",
      "max": [
        1.0,
        1.0
      ],
      "min": [
        -1.0,
        0.0
      ]
    },
    {
      "bufferView": 8,
      "componentType": 5126,
      "count": 24,
      "type": "VEC3",
      "max": [
        1.0,
        1.0,
        1.0
      ],
      "min": [
        0.0,
        0.0,
        0.0
      ]
    },
    {
      "bufferView": 9,
      "componentType": 5126,
      "count": 24,
      "type": "VEC3",
      "max": [
        1.0,
        1.0,
        1.0
      ],
      "min": [
        -1.0,
        -1.0,
        -1.0
      ]
    },
    {
      "bufferView": 10,
      "componentType": 5123,
      "count": 36,
      "type": "SCALAR",
      "max": [
        23.0
      ],
      "min": [
        0.0
      ]
    },
    {
      "bufferView": 11,
      "componentType": 5126,
      "count": 24,
      "type": "VEC2",
      "max": [
        1.0,
        1.0
      ],
      "min": [
        -1.0,
        0.0
      ]
    },
    {
      "bufferView": 12,
      "componentType": 5126,
      "count": 24,
      "type": "VEC3",
      "max": [
        1.0,
        1.0,
        1.0
      ],
      "min": [
        0.0,
        0.0,
        0.0
      ]
    },
    {
      "bufferView": 13,
      "componentType": 5126,
      "count": 24,
      "type": "VEC3",
      "max": [
        1.0,
        1.0,
        1.0
      ],
      "min": [
        -1.0,
        -1.0,
        -1.0
      ]
    },
    {
      "bufferView": 14,
      "componentType": 5123,
      "count": 36,
      "type": "SCALAR",
      "max": [
        23.0
      ],
      "min": [
        0.0
      ]
    },
    {
      "bufferView": 15,
      "componentType": 5126,
      "count": 24,
      "type": "VEC2",
      "max": [
        1.0,
        1.0
      ],
      "min": [
        -1.0,
        0.0
      ]
    }
  ],
  "asset": {
    "generator": "hypar-gltf",
    "version": "2.0"
  },
  "buffers": [
    {
      "uri": "ReceptionLayoutTest_0.bin",
      "byteLength": 3360
    }
  ],
  "bufferViews": [
    {
      "buffer": 0,
      "byteLength": 288
    },
    {
      "buffer": 0,
      "byteOffset": 288,
      "byteLength": 288
    },
    {
      "buffer": 0,
      "byteOffset": 576,
      "byteLength": 72
    },
    {
      "buffer": 0,
      "byteOffset": 648,
      "byteLength": 192
    },
    {
      "buffer": 0,
      "byteOffset": 840,
      "byteLength": 288
    },
    {
      "buffer": 0,
      "byteOffset": 1128,
      "byteLength": 288
    },
    {
      "buffer": 0,
      "byteOffset": 1416,
      "byteLength": 72
    },
    {
      "buffer": 0,
      "byteOffset": 1488,
      "byteLength": 192
    },
    {
      "buffer": 0,
      "byteOffset": 1680,
      "byteLength": 288
    },
    {
      "buffer": 0,
      "byteOffset": 1968,
      "byteLength": 288
    },
    {
      "buffer": 0,
      "byteOffset": 2256,
      "byteLength": 72
    },
    {
      "buffer": 0,
      "byteOffset": 2328,
      "byteLength": 192
    },
    {
      "buffer": 0,
      "byteOffset": 2520,
      "byteLength": 288
    },
    {
      "buffer": 0,
      "byteOffset": 2808,
      "byteLength": 288
    },
    {
      "buffer": 0,
      "byteOffset": 3096,
      "byteLength": 72
    },
    {
      "buffer": 0,
      "byteOffset": 3168,
      "byteLength": 192
    }
  ],
  "materials": [
    {
      "name": "e8e96d02-c350-4be7-adae-8584874591ec",
      "extensions": {
        "KHR_materials_specular": {
          "specularFactor": 0.1,
          "specularColorFactor": [
            1.0,
            1.0,
            1.0
          ]
        },
        "KHR_materials_ior": {
          "ior": 1000
        }
      },
      "pbrMetallicRoughness": {
        "baseColorFactor": [
          0.7874123,
          0.7874123,
          0.7874123,
          1.0
        ],
        "metallicFactor": 0.0,
        "roughnessFactor": 0.9
      }
    }
  ],
  "meshes": [
    {
      "primitives": [
        {
          "attributes": {
            "NORMAL": 1,
            "POSITION": 0,
            "TEXCOORD_0": 3
          },
          "indices": 2,
          "material": 0
        }
      ],
      "name": "7726a79a-7d0f-4322-b5d6-6a1f0bc9562c_mesh"
    },
    {
      "primitives": [
        {
          "attributes": {
            "NORMAL": 5,
            "POSITION": 4,
            "TEXCOORD_0": 7
          },
          "indices": 6,
          "material": 0
        }
      ],
      "name": "cb67936e-be43-489b-8d58-b7cca4a9bb90_mesh"
    },
    {
      "primitives": [
        {
          "attributes": {
            "NORMAL": 9,
            "POSITION": 8,
            "TEXCOORD_0": 11
          },
          "indices": 10,
          "material": 0
        }
      ],
      "name": "f56ce2b7-49a9-4b9b-ab4b-b38c94c6f2eb_mesh"
    },
    {
      "primitives": [
        {
          "attributes": {
            "NORMAL": 13,
            "POSITION": 12,
            "TEXCOORD_0": 15
          },
          "indices": 14,
          "material": 0
        }
      ],
      "name": "09008592-1c37-4a11-b032-0483cfc9d444_mesh"
    }
  ],
  "nodes": [
    {
      "children": [
        1,
        2,
        3,
        4,
        5,
        6,
        7
      ],
      "matrix": [
        1.0,
        0.0,
        0.0,
        0.0,
        0.0,
        6.123234E-17,
        -1.0,
        0.0,
        0.0,
        1.0,
        6.123234E-17,
        0.0,
        0.0,
        0.0,
        0.0,
        1.0
      ]
    },
    {
      "matrix": [
        -0.9999944,
        -0.0033431202,
        0.0,
        0.0,
        0.0033431202,
        -0.9999944,
        0.0,
        0.0,
        0.0,
        0.0,
        1.0,
        0.0,
        7.2322907,
        22.1781,
        0.0,
        1.0
      ],
      "mesh": 0,
      "extensions": {
        "HYPAR_info": {
          "id": "e451a0e1-2dd0-47cb-bd96-d32e8f25fc64"
        },
        "HYPAR_referenced_content": {
          "contentUrl": "https://hypar.io/user-static/60e363e1-5f35-4cec-a9c9-8b6acf8ffa8f.glb"
        }
      }
    },
    {
      "matrix": [
        1.0,
        -1.5890606E-05,
        0.0,
        0.0,
        1.5890606E-05,
        1.0,
        0.0,
        0.0,
        0.0,
        0.0,
        1.0,
        0.0,
        6.360097,
        22.966251,
        0.0,
        1.0
      ],
      "mesh": 1,
      "extensions": {
        "HYPAR_info": {
          "id": "df293c95-b715-4f99-b0da-fab62aadfaf6"
        },
        "HYPAR_referenced_content": {
          "contentUrl": "https://hypar.io/user-static/c075df58-838e-4069-a093-19fc21a19f27.glb"
        }
      }
    },
    {
      "matrix": [
        1.0,
        -1.5890606E-05,
        0.0,
        0.0,
        1.5890606E-05,
        1.0,
        0.0,
        0.0,
        0.0,
        0.0,
        1.0,
        0.0,
        6.385497,
        22.976843,
        0.0,
        1.0
      ],
      "mesh": 2,
      "extensions": {
        "HYPAR_info": {
          "id": "eea98514-3888-40d2-9029-9bed7801d410"
        },
        "HYPAR_referenced_content": {
          "contentUrl": "https://hypar.io/user-static/444b6a34-66f3-45aa-ba04-577e202fdb11.glb"
        }
      }
    },
    {
      "matrix": [
        1.0,
        -1.5890606E-05,
        0.0,
        0.0,
        1.5890606E-05,
        1.0,
        0.0,
        0.0,
        0.0,
        0.0,
        1.0,
        0.0,
        4.549773,
        22.96628,
        0.0,
        1.0
      ],
      "mesh": 1,
      "extensions": {
        "HYPAR_info": {
          "id": "fe62b5c0-bba9-4fe0-87d0-ffd46aeee7da"
        },
        "HYPAR_referenced_content": {
          "contentUrl": "https://hypar.io/user-static/c075df58-838e-4069-a093-19fc21a19f27.glb"
        }
      }
    },
    {
      "matrix": [
        -0.9063011,
        0.42263266,
        0.0,
        0.0,
        -0.42263266,
        -0.9063011,
        0.0,
        0.0,
        0.0,
        0.0,
        1.0,
        0.0,
        5.5810328,
        22.111176,
        0.0,
        1.0
      ],
      "mesh": 0,
      "extensions": {
        "HYPAR_info": {
          "id": "63c1a911-22d4-4511-9c98-177e651fd943"
        },
        "HYPAR_referenced_content": {
          "contentUrl": "https://hypar.io/user-static/60e363e1-5f35-4cec-a9c9-8b6acf8ffa8f.glb"
        }
      }
    },
    {
      "matrix": [
        1.0,
        -1.5890606E-05,
        0.0,
        0.0,
        1.5890606E-05,
        1.0,
        0.0,
        0.0,
        0.0,
        0.0,
        1.0,
        0.0,
        4.5751615,
        22.22681,
        0.0,
        1.0
      ],
      "mesh": 3,
      "extensions": {
        "HYPAR_info": {
          "id": "6cc76074-8478-495f-8c97-23077d59ea5d"
        },
        "HYPAR_referenced_content": {
          "contentUrl": "https://hypar.io/user-static/6f76d83e-e840-43ed-bdf3-d4052628c358.glb"
        }
      }
    },
    {
      "matrix": [
        1.0,
        -1.5890606E-05,
        0.0,
        0.0,
        1.5890606E-05,
        1.0,
        0.0,
        0.0,
        0.0,
        0.0,
        1.0,
        0.0,
        4.5751734,
        22.976871,
        0.0,
        1.0
      ],
      "mesh": 2,
      "extensions": {
        "HYPAR_info": {
          "id": "4573dac7-bcde-4424-8590-35d38a0ff01f"
        },
        "HYPAR_referenced_content": {
          "contentUrl": "https://hypar.io/user-static/444b6a34-66f3-45aa-ba04-577e202fdb11.glb"
        }
      }
    }
  ],
  "scene": 0,
  "scenes": [
    {
      "nodes": [
        0
      ]
    }
  ]
}