{
  "extensionsUsed": [
    "KHR_materials_pbrSpecularGlossiness",
    "KHR_materials_unlit"
  ],
  "accessors": [
    {
      "bufferView": 0,
      "componentType": 5126,
      "count": 24,
      "type": "VEC3",
      "max": [
        72.93136,
        -30.52631,
        0.1
      ],
      "min": [
        23.13997,
        -54.73383,
        0.0
      ]
    },
    {
      "bufferView": 1,
      "componentType": 5126,
      "count": 24,
      "type": "VEC3",
      "max": [
        0.9068444,
        0.90684444,
        1.0
      ],
      "min": [
        -0.90684694,
        -0.9068445,
        -1.0
      ]
    },
    {
      "bufferView": 2,
      "componentType": 5123,
      "count": 36,
      "type": "SCALAR",
      "max": [
        23.0
      ],
      "min": [
        0.0
      ]
    },
    {
      "bufferView": 3,
      "componentType": 5126,
      "count": 24,
      "type": "VEC2",
      "max": [
        72.93136,
        0.1
      ],
      "min": [
        -72.93136,
        -54.73383
      ]
    },
    {
      "bufferView": 4,
      "componentType": 5126,
      "count": 736,
      "type": "VEC3",
      "max": [
        77.88977,
        -8.3188,
        0.1
      ],
      "min": [
        2.23329,
        -60.37499,
        0.0
      ]
    },
    {
      "bufferView": 5,
      "componentType": 5126,
      "count": 736,
      "type": "VEC3",
      "max": [
        0.9982985,
        0.99998176,
        1.0
      ],
      "min": [
        -0.9982985,
        -0.99998176,
        -1.0
      ]
    },
    {
      "bufferView": 6,
      "componentType": 5123,
      "count": 864,
      "type": "SCALAR",
      "max": [
        735.0
      ],
      "min": [
        0.0
      ]
    },
    {
      "bufferView": 7,
      "componentType": 5126,
      "count": 736,
      "type": "VEC2",
      "max": [
        77.88977,
        0.1
      ],
      "min": [
        -77.941246,
        -60.37499
      ]
    },
    {
      "bufferView": 8,
      "componentType": 5126,
      "count": 930,
      "type": "VEC3",
      "max": [
        86.03198,
        9.39658,
        0.1
      ],
      "min": [
        19.38659,
        -85.57394,
        0.0
      ]
    },
    {
      "bufferView": 9,
      "componentType": 5126,
      "count": 930,
      "type": "VEC3",
      "max": [
        0.9957558,
        0.9995013,
        1.0
      ],
      "min": [
        -0.99575573,
        -0.9995012,
        -1.0
      ]
    },
    {
      "bufferView": 10,
      "componentType": 5123,
      "count": 1092,
      "type": "SCALAR",
      "max": [
        929.0
      ],
      "min": [
        0.0
      ]
    },
    {
      "bufferView": 11,
      "componentType": 5126,
      "count": 930,
      "type": "VEC2",
      "max": [
        97.176186,
        9.39658
      ],
      "min": [
        -95.78895,
        -85.57394
      ]
    }
  ],
  "asset": {
    "generator": "hypar-gltf",
    "version": "2.0"
  },
  "buffers": [
    {
      "uri": "CirculationTest_0.bin",
      "byteLength": 58064
    }
  ],
  "bufferViews": [
    {
      "buffer": 0,
      "byteLength": 288
    },
    {
      "buffer": 0,
      "byteOffset": 288,
      "byteLength": 288
    },
    {
      "buffer": 0,
      "byteOffset": 576,
      "byteLength": 72
    },
    {
      "buffer": 0,
      "byteOffset": 648,
      "byteLength": 192
    },
    {
      "buffer": 0,
      "byteOffset": 840,
      "byteLength": 8832
    },
    {
      "buffer": 0,
      "byteOffset": 9672,
      "byteLength": 8832
    },
    {
      "buffer": 0,
      "byteOffset": 18504,
      "byteLength": 1728
    },
    {
      "buffer": 0,
      "byteOffset": 20232,
      "byteLength": 5888
    },
    {
      "buffer": 0,
      "byteOffset": 26120,
      "byteLength": 11160
    },
    {
      "buffer": 0,
      "byteOffset": 37280,
      "byteLength": 11160
    },
    {
      "buffer": 0,
      "byteOffset": 48440,
      "byteLength": 2184
    },
    {
      "buffer": 0,
      "byteOffset": 50624,
      "byteLength": 7440
    }
  ],
  "materials": [
    {
      "name": "Circulation",
      "extensions": {
        "KHR_materials_pbrSpecularGlossiness": {
          "diffuseFactor": [
            0.996,
            0.965,
            0.863,
            1.0
          ],
          "specularFactor": [
            0.1,
            0.1,
            0.1
          ],
          "glossinessFactor": 0.1
        }
      },
      "pbrMetallicRoughness": {
        "baseColorFactor": [
          0.996,
          0.965,
          0.863,
          1.0
        ]
      },
      "doubleSided": true
    }
  ],
  "meshes": [
    {
      "primitives": [
        {
          "attributes": {
            "NORMAL": 1,
            "POSITION": 0,
            "TEXCOORD_0": 3
          },
          "indices": 2,
          "material": 0
        }
      ],
      "name": "b0f600f1-e510-44bc-9e07-9ec2cd413406_mesh"
    },
    {
      "primitives": [
        {
          "attributes": {
            "NORMAL": 5,
            "POSITION": 4,
            "TEXCOORD_0": 7
          },
          "indices": 6,
          "material": 0
        }
      ],
      "name": "910bd865-8c90-4084-bab4-a3150bcad90c_mesh"
    },
    {
      "primitives": [
        {
          "attributes": {
            "NORMAL": 9,
            "POSITION": 8,
            "TEXCOORD_0": 11
          },
          "indices": 10,
          "material": 0
        }
      ],
      "name": "ff84c655-9975-4b46-9419-9d82e4ded6a7_mesh"
    }
  ],
  "nodes": [
    {
      "children": [
        1,
        3,
        5
      ],
      "matrix": [
        1.0,
        0.0,
        0.0,
        0.0,
        0.0,
        6.123234E-17,
        -1.0,
        0.0,
        0.0,
        1.0,
        6.123234E-17,
        0.0,
        0.0,
        0.0,
        0.0,
        1.0
      ]
    },
    {
      "children": [
        2
      ],
      "matrix": [
        1.0,
        0.0,
        0.0,
        0.0,
        0.0,
        1.0,
        0.0,
        0.0,
        0.0,
        0.0,
        1.0,
        0.0,
        0.0,
        0.0,
        3.8396845,
        1.0
      ]
    },
    {
      "mesh": 0
    },
    {
      "children": [
        4
      ],
      "matrix": [
        1.0,
        0.0,
        0.0,
        0.0,
        0.0,
        1.0,
        0.0,
        0.0,
        0.0,
        0.0,
        1.0,
        0.0,
        0.0,
        0.0,
        0.3,
        1.0
      ]
    },
    {
      "mesh": 1
    },
    {
      "children": [
        6
      ],
      "matrix": [
        1.0,
        0.0,
        0.0,
        0.0,
        0.0,
        1.0,
        0.0,
        0.0,
        0.0,
        0.0,
        1.0,
        0.0,
        0.0,
        0.0,
        3.8396845,
        1.0
      ]
    },
    {
      "mesh": 2
    }
  ],
  "scene": 0,
  "scenes": [
    {
      "nodes": [
        0
      ]
    }
  ]
}