{
  "extensionsUsed": [
    "KHR_materials_specular",
    "KHR_materials_ior",
    "KHR_materials_unlit",
    "HYPAR_info"
  ],
  "accessors": [
    {
      "bufferView": 0,
      "componentType": 5126,
      "count": 24,
      "type": "VEC3",
      "max": [
        16.26381,
        15.24,
        0.01
      ],
      "min": [
        8.0,
        13.74,
        0.0
      ]
    },
    {
      "bufferView": 1,
      "componentType": 5126,
      "count": 24,
      "type": "VEC3",
      "max": [
        1.0,
        1.0,
        1.0
      ],
      "min": [
        -1.0,
        -1.0,
        -1.0
      ]
    },
    {
      "bufferView": 2,
      "componentType": 5123,
      "count": 36,
      "type": "SCALAR",
      "max": [
        23.0
      ],
      "min": [
        0.0
      ]
    },
    {
      "bufferView": 3,
      "componentType": 5126,
      "count": 24,
      "type": "VEC2",
      "max": [
        16.26381,
        15.24
      ],
      "min": [
        -16.26381,
        0.0
      ]
    },
    {
      "bufferView": 4,
      "componentType": 5126,
      "count": 24,
      "type": "VEC3",
      "max": [
        16.26381,
        24.48,
        0.01
      ],
      "min": [
        14.76381,
        6.0,
        0.0
      ]
    },
    {
      "bufferView": 5,
      "componentType": 5126,
      "count": 24,
      "type": "VEC3",
      "max": [
        1.0,
        1.0,
        1.0
      ],
      "min": [
        -1.0,
        -1.0,
        -1.0
      ]
    },
    {
      "bufferView": 6,
      "componentType": 5123,
      "count": 36,
      "type": "SCALAR",
      "max": [
        23.0
      ],
      "min": [
        0.0
      ]
    },
    {
      "bufferView": 7,
      "componentType": 5126,
      "count": 24,
      "type": "VEC2",
      "max": [
        24.48,
        24.48
      ],
      "min": [
        -24.48,
        0.0
      ]
    },
    {
      "bufferView": 8,
      "componentType": 5126,
      "count": 24,
      "type": "VEC3",
      "max": [
        16.26381,
        15.24,
        0.01
      ],
      "min": [
        8.0,
        13.74,
        0.0
      ]
    },
    {
      "bufferView": 9,
      "componentType": 5126,
      "count": 24,
      "type": "VEC3",
      "max": [
        1.0,
        1.0,
        1.0
      ],
      "min": [
        -1.0,
        -1.0,
        -1.0
      ]
    },
    {
      "bufferView": 10,
      "componentType": 5123,
      "count": 36,
      "type": "SCALAR",
      "max": [
        23.0
      ],
      "min": [
        0.0
      ]
    },
    {
      "bufferView": 11,
      "componentType": 5126,
      "count": 24,
      "type": "VEC2",
      "max": [
        16.26381,
        15.24
      ],
      "min": [
        -16.26381,
        0.0
      ]
    },
    {
      "bufferView": 12,
      "componentType": 5126,
      "count": 48,
      "type": "VEC3",
      "max": [
        37.72,
        24.48,
        0.01
      ],
      "min": [
        8.0,
        6.0,
        0.0
      ]
    },
    {
      "bufferView": 13,
      "componentType": 5126,
      "count": 48,
      "type": "VEC3",
      "max": [
        1.0,
        1.0,
        1.0
      ],
      "min": [
        -1.0,
        -1.0,
        -1.0
      ]
    },
    {
      "bufferView": 14,
      "componentType": 5123,
      "count": 96,
      "type": "SCALAR",
      "max": [
        47.0
      ],
      "min": [
        0.0
      ]
    },
    {
      "bufferView": 15,
      "componentType": 5126,
      "count": 48,
      "type": "VEC2",
      "max": [
        37.72,
        24.48
      ],
      "min": [
        -37.72,
        0.0
      ]
    },
    {
      "bufferView": 16,
      "componentType": 5126,
      "count": 48,
      "type": "VEC3",
      "max": [
        37.72,
        24.48,
        0.01
      ],
      "min": [
        15.29181,
        6.01858,
        0.0
      ]
    },
    {
      "bufferView": 17,
      "componentType": 5126,
      "count": 48,
      "type": "VEC3",
      "max": [
        1.0,
        1.0,
        1.0
      ],
      "min": [
        -1.0,
        -1.0,
        -1.0
      ]
    },
    {
      "bufferView": 18,
      "componentType": 5123,
      "count": 96,
      "type": "SCALAR",
      "max": [
        47.0
      ],
      "min": [
        0.0
      ]
    },
    {
      "bufferView": 19,
      "componentType": 5126,
      "count": 48,
      "type": "VEC2",
      "max": [
        37.73399,
        24.48
      ],
      "min": [
        -37.72,
        0.0
      ]
    },
    {
      "bufferView": 20,
      "componentType": 5126,
      "count": 24,
      "type": "VEC3",
      "max": [
        16.26381,
        15.24,
        0.01
      ],
      "min": [
        8.0,
        13.74,
        0.0
      ]
    },
    {
      "bufferView": 21,
      "componentType": 5126,
      "count": 24,
      "type": "VEC3",
      "max": [
        1.0,
        1.0,
        1.0
      ],
      "min": [
        -1.0,
        -1.0,
        -1.0
      ]
    },
    {
      "bufferView": 22,
      "componentType": 5123,
      "count": 36,
      "type": "SCALAR",
      "max": [
        23.0
      ],
      "min": [
        0.0
      ]
    },
    {
      "bufferView": 23,
      "componentType": 5126,
      "count": 24,
      "type": "VEC2",
      "max": [
        16.26381,
        15.24
      ],
      "min": [
        -16.26381,
        0.0
      ]
    },
    {
      "bufferView": 24,
      "componentType": 5126,
      "count": 24,
      "type": "VEC3",
      "max": [
        16.26381,
        24.48,
        0.01
      ],
      "min": [
        14.76381,
        6.0,
        0.0
      ]
    },
    {
      "bufferView": 25,
      "componentType": 5126,
      "count": 24,
      "type": "VEC3",
      "max": [
        1.0,
        1.0,
        1.0
      ],
      "min": [
        -1.0,
        -1.0,
        -1.0
      ]
    },
    {
      "bufferView": 26,
      "componentType": 5123,
      "count": 36,
      "type": "SCALAR",
      "max": [
        23.0
      ],
      "min": [
        0.0
      ]
    },
    {
      "bufferView": 27,
      "componentType": 5126,
      "count": 24,
      "type": "VEC2",
      "max": [
        24.48,
        24.48
      ],
      "min": [
        -24.48,
        0.0
      ]
    },
    {
      "bufferView": 28,
      "componentType": 5126,
      "count": 24,
      "type": "VEC3",
      "max": [
        16.26381,
        15.24,
        0.01
      ],
      "min": [
        8.0,
        13.74,
        0.0
      ]
    },
    {
      "bufferView": 29,
      "componentType": 5126,
      "count": 24,
      "type": "VEC3",
      "max": [
        1.0,
        1.0,
        1.0
      ],
      "min": [
        -1.0,
        -1.0,
        -1.0
      ]
    },
    {
      "bufferView": 30,
      "componentType": 5123,
      "count": 36,
      "type": "SCALAR",
      "max": [
        23.0
      ],
      "min": [
        0.0
      ]
    },
    {
      "bufferView": 31,
      "componentType": 5126,
      "count": 24,
      "type": "VEC2",
      "max": [
        16.26381,
        15.24
      ],
      "min": [
        -16.26381,
        0.0
      ]
    },
    {
      "bufferView": 32,
      "componentType": 5126,
      "count": 96,
      "type": "VEC3",
      "max": [
        37.72,
        24.48,
        0.005
      ],
      "min": [
        8.0,
        6.0,
        0.0
      ]
    },
    {
      "bufferView": 33,
      "componentType": 5126,
      "count": 96,
      "type": "VEC3",
      "max": [
        1.0,
        1.0,
        1.0
      ],
      "min": [
        -1.0,
        -1.0,
        -1.0
      ]
    },
    {
      "bufferView": 34,
      "componentType": 5123,
      "count": 204,
      "type": "SCALAR",
      "max": [
        95.0
      ],
      "min": [
        0.0
      ]
    },
    {
      "bufferView": 35,
      "componentType": 5126,
      "count": 96,
      "type": "VEC2",
      "max": [
        37.72,
        24.48
      ],
      "min": [
        -37.72,
        0.0
      ]
    },
    {
      "bufferView": 36,
      "componentType": 5126,
      "count": 84,
      "type": "VEC3",
      "max": [
        37.72,
        24.48,
        0.005
      ],
      "min": [
        8.0,
        6.0,
        0.0
      ]
    },
    {
      "bufferView": 37,
      "componentType": 5126,
      "count": 84,
      "type": "VEC3",
      "max": [
        1.0,
        1.0,
        1.0
      ],
      "min": [
        -1.0,
        -1.0,
        -1.0
      ]
    },
    {
      "bufferView": 38,
      "componentType": 5123,
      "count": 168,
      "type": "SCALAR",
      "max": [
        83.0
      ],
      "min": [
        0.0
      ]
    },
    {
      "bufferView": 39,
      "componentType": 5126,
      "count": 84,
      "type": "VEC2",
      "max": [
        37.73399,
        24.48
      ],
      "min": [
        -37.72,
        0.0
      ]
    }
  ],
  "asset": {
    "generator": "hypar-gltf",
    "version": "2.0"
  },
  "buffers": [
    {
      "uri": "CirculationTest_0.bin",
      "byteLength": 15000
    }
  ],
  "bufferViews": [
    {
      "buffer": 0,
      "byteLength": 288
    },
    {
      "buffer": 0,
      "byteOffset": 288,
      "byteLength": 288
    },
    {
      "buffer": 0,
      "byteOffset": 576,
      "byteLength": 72
    },
    {
      "buffer": 0,
      "byteOffset": 648,
      "byteLength": 192
    },
    {
      "buffer": 0,
      "byteOffset": 840,
      "byteLength": 288
    },
    {
      "buffer": 0,
      "byteOffset": 1128,
      "byteLength": 288
    },
    {
      "buffer": 0,
      "byteOffset": 1416,
      "byteLength": 72
    },
    {
      "buffer": 0,
      "byteOffset": 1488,
      "byteLength": 192
    },
    {
      "buffer": 0,
      "byteOffset": 1680,
      "byteLength": 288
    },
    {
      "buffer": 0,
      "byteOffset": 1968,
      "byteLength": 288
    },
    {
      "buffer": 0,
      "byteOffset": 2256,
      "byteLength": 72
    },
    {
      "buffer": 0,
      "byteOffset": 2328,
      "byteLength": 192
    },
    {
      "buffer": 0,
      "byteOffset": 2520,
      "byteLength": 576
    },
    {
      "buffer": 0,
      "byteOffset": 3096,
      "byteLength": 576
    },
    {
      "buffer": 0,
      "byteOffset": 3672,
      "byteLength": 192
    },
    {
      "buffer": 0,
      "byteOffset": 3864,
      "byteLength": 384
    },
    {
      "buffer": 0,
      "byteOffset": 4248,
      "byteLength": 576
    },
    {
      "buffer": 0,
      "byteOffset": 4824,
      "byteLength": 576
    },
    {
      "buffer": 0,
      "byteOffset": 5400,
      "byteLength": 192
    },
    {
      "buffer": 0,
      "byteOffset": 5592,
      "byteLength": 384
    },
    {
      "buffer": 0,
      "byteOffset": 5976,
      "byteLength": 288
    },
    {
      "buffer": 0,
      "byteOffset": 6264,
      "byteLength": 288
    },
    {
      "buffer": 0,
      "byteOffset": 6552,
      "byteLength": 72
    },
    {
      "buffer": 0,
      "byteOffset": 6624,
      "byteLength": 192
    },
    {
      "buffer": 0,
      "byteOffset": 6816,
      "byteLength": 288
    },
    {
      "buffer": 0,
      "byteOffset": 7104,
      "byteLength": 288
    },
    {
      "buffer": 0,
      "byteOffset": 7392,
      "byteLength": 72
    },
    {
      "buffer": 0,
      "byteOffset": 7464,
      "byteLength": 192
    },
    {
      "buffer": 0,
      "byteOffset": 7656,
      "byteLength": 288
    },
    {
      "buffer": 0,
      "byteOffset": 7944,
      "byteLength": 288
    },
    {
      "buffer": 0,
      "byteOffset": 8232,
      "byteLength": 72
    },
    {
      "buffer": 0,
      "byteOffset": 8304,
      "byteLength": 192
    },
    {
      "buffer": 0,
      "byteOffset": 8496,
      "byteLength": 1152
    },
    {
      "buffer": 0,
      "byteOffset": 9648,
      "byteLength": 1152
    },
    {
      "buffer": 0,
      "byteOffset": 10800,
      "byteLength": 408
    },
    {
      "buffer": 0,
      "byteOffset": 11208,
      "byteLength": 768
    },
    {
      "buffer": 0,
      "byteOffset": 11976,
      "byteLength": 1008
    },
    {
      "buffer": 0,
      "byteOffset": 12984,
      "byteLength": 1008
    },
    {
      "buffer": 0,
      "byteOffset": 13992,
      "byteLength": 336
    },
    {
      "buffer": 0,
      "byteOffset": 14328,
      "byteLength": 672
    }
  ],
  "materials": [
    {
      "name": "252ffd71-cc52-49c8-91ab-798f568bebd6",
      "extensions": {
        "KHR_materials_specular": {
          "specularFactor": 0.1,
          "specularColorFactor": [
            1.0,
            1.0,
            1.0
          ]
        },
        "KHR_materials_ior": {
          "ior": 1000
        }
      },
      "pbrMetallicRoughness": {
        "baseColorFactor": [
          0.9909246,
          0.92221993,
          0.71617067,
          1.0
        ],
        "metallicFactor": 0.0,
        "roughnessFactor": 0.9
      },
      "doubleSided": true
    }
  ],
  "meshes": [
    {
      "primitives": [
        {
          "attributes": {
            "NORMAL": 1,
            "POSITION": 0,
            "TEXCOORD_0": 3
          },
          "indices": 2,
          "material": 0
        }
      ],
      "name": "96ff9821-1883-4502-93b4-98cfc9d62831_mesh"
    },
    {
      "primitives": [
        {
          "attributes": {
            "NORMAL": 5,
            "POSITION": 4,
            "TEXCOORD_0": 7
          },
          "indices": 6,
          "material": 0
        }
      ],
      "name": "b638df8d-1c2d-4c7a-8f24-03a168bc6dd8_mesh"
    },
    {
      "primitives": [
        {
          "attributes": {
            "NORMAL": 9,
            "POSITION": 8,
            "TEXCOORD_0": 11
          },
          "indices": 10,
          "material": 0
        }
      ],
      "name": "b91adeda-144f-4f62-91b0-9d9c262c6e19_mesh"
    },
    {
      "primitives": [
        {
          "attributes": {
            "NORMAL": 13,
            "POSITION": 12,
            "TEXCOORD_0": 15
          },
          "indices": 14,
          "material": 0
        }
      ],
      "name": "4dd0bed8-fdcc-4837-a458-ad32d0762503_mesh"
    },
    {
      "primitives": [
        {
          "attributes": {
            "NORMAL": 17,
            "POSITION": 16,
            "TEXCOORD_0": 19
          },
          "indices": 18,
          "material": 0
        }
      ],
      "name": "d4cf5c4c-eb4d-4dfd-b426-e993304c27d1_mesh"
    },
    {
      "primitives": [
        {
          "attributes": {
            "NORMAL": 21,
            "POSITION": 20,
            "TEXCOORD_0": 23
          },
          "indices": 22,
          "material": 0
        }
      ],
      "name": "51dfe2c9-99b5-4f34-9f51-25598539e300_mesh"
    },
    {
      "primitives": [
        {
          "attributes": {
            "NORMAL": 25,
            "POSITION": 24,
            "TEXCOORD_0": 27
          },
          "indices": 26,
          "material": 0
        }
      ],
      "name": "71eaa391-f649-436f-af15-05febf9b39f9_mesh"
    },
    {
      "primitives": [
        {
          "attributes": {
            "NORMAL": 29,
            "POSITION": 28,
            "TEXCOORD_0": 31
          },
          "indices": 30,
          "material": 0
        }
      ],
      "name": "082b1376-c462-4e03-98cf-da08cafa3eea_mesh"
    },
    {
      "primitives": [
        {
          "attributes": {
            "NORMAL": 33,
            "POSITION": 32,
            "TEXCOORD_0": 35
          },
          "indices": 34,
          "material": 0
        }
      ],
      "name": "66a5c1ab-fae7-4986-95d8-afc5a6d5f9ec_mesh"
    },
    {
      "primitives": [
        {
          "attributes": {
            "NORMAL": 37,
            "POSITION": 36,
            "TEXCOORD_0": 39
          },
          "indices": 38,
          "material": 0
        }
      ],
      "name": "76ba5a9e-212b-4769-84b3-a5bbb12b3e0a_mesh"
    }
  ],
  "nodes": [
    {
      "children": [
        1,
        3,
        5,
        7,
        9,
        11,
        13,
        15,
        17,
        19
      ],
      "matrix": [
        1.0,
        0.0,
        0.0,
        0.0,
        0.0,
        6.123234E-17,
        -1.0,
        0.0,
        0.0,
        1.0,
        6.123234E-17,
        0.0,
        0.0,
        0.0,
        0.0,
        1.0
      ]
    },
    {
      "children": [
        2
      ],
      "extensions": {
        "HYPAR_info": {
          "id": "96ff9821-1883-4502-93b4-98cfc9d62831"
        }
      }
    },
    {
      "mesh": 0
    },
    {
      "children": [
        4
      ],
      "extensions": {
        "HYPAR_info": {
          "id": "b638df8d-1c2d-4c7a-8f24-03a168bc6dd8"
        }
      }
    },
    {
      "mesh": 1
    },
    {
      "children": [
        6
      ],
      "extensions": {
        "HYPAR_info": {
          "id": "b91adeda-144f-4f62-91b0-9d9c262c6e19"
        }
      }
    },
    {
      "mesh": 2
    },
    {
      "children": [
        8
      ],
      "extensions": {
        "HYPAR_info": {
          "id": "4dd0bed8-fdcc-4837-a458-ad32d0762503"
        }
      }
    },
    {
      "mesh": 3
    },
    {
      "children": [
        10
      ],
      "matrix": [
        1.0,
        0.0,
        0.0,
        0.0,
        0.0,
        1.0,
        0.0,
        0.0,
        0.0,
        0.0,
        1.0,
        0.0,
        0.0,
        0.0,
        2.7,
        1.0
      ],
      "extensions": {
        "HYPAR_info": {
          "id": "d4cf5c4c-eb4d-4dfd-b426-e993304c27d1"
        }
      }
    },
    {
      "mesh": 4
    },
    {
      "children": [
        12
      ],
      "matrix": [
        1.0,
        0.0,
        0.0,
        0.0,
        0.0,
        1.0,
        0.0,
        0.0,
        0.0,
        0.0,
        1.0,
        0.0,
        0.0,
        0.0,
        2.7,
        1.0
      ],
      "extensions": {
        "HYPAR_info": {
          "id": "51dfe2c9-99b5-4f34-9f51-25598539e300"
        }
      }
    },
    {
      "mesh": 5
    },
    {
      "children": [
        14
      ],
      "matrix": [
        1.0,
        0.0,
        0.0,
        0.0,
        0.0,
        1.0,
        0.0,
        0.0,
        0.0,
        0.0,
        1.0,
        0.0,
        0.0,
        0.0,
        2.7,
        1.0
      ],
      "extensions": {
        "HYPAR_info": {
          "id": "71eaa391-f649-436f-af15-05febf9b39f9"
        }
      }
    },
    {
      "mesh": 6
    },
    {
      "children": [
        16
      ],
      "matrix": [
        1.0,
        0.0,
        0.0,
        0.0,
        0.0,
        1.0,
        0.0,
        0.0,
        0.0,
        0.0,
        1.0,
        0.0,
        0.0,
        0.0,
        2.7,
        1.0
      ],
      "extensions": {
        "HYPAR_info": {
          "id": "082b1376-c462-4e03-98cf-da08cafa3eea"
        }
      }
    },
    {
      "mesh": 7
    },
    {
      "children": [
        18
      ],
      "extensions": {
        "HYPAR_info": {
          "id": "66a5c1ab-fae7-4986-95d8-afc5a6d5f9ec"
        }
      }
    },
    {
      "mesh": 8
    },
    {
      "children": [
        20
      ],
      "matrix": [
        1.0,
        0.0,
        0.0,
        0.0,
        0.0,
        1.0,
        0.0,
        0.0,
        0.0,
        0.0,
        1.0,
        0.0,
        0.0,
        0.0,
        2.7,
        1.0
      ],
      "extensions": {
        "HYPAR_info": {
          "id": "76ba5a9e-212b-4769-84b3-a5bbb12b3e0a"
        }
      }
    },
    {
      "mesh": 9
    }
  ],
  "scene": 0,
  "scenes": [
    {
      "nodes": [
        0
      ]
    }
  ]
}