{
  "extensionsUsed": [
    "KHR_materials_pbrSpecularGlossiness",
    "KHR_materials_unlit"
  ],
  "accessors": [
    {
      "bufferView": 0,
      "componentType": 5126,
      "count": 320,
      "type": "VEC3",
      "max": [
        65.16032,
        46.36452,
        0.11
      ],
      "min": [
        2.88727,
        20.67715,
        0.0
      ]
    },
    {
      "bufferView": 1,
      "componentType": 5126,
      "count": 320,
      "type": "VEC3",
      "max": [
        1.0,
        1.0,
        1.0
      ],
      "min": [
        -1.0,
        -1.0,
        -1.0
      ]
    },
    {
      "bufferView": 2,
      "componentType": 5123,
      "count": 384,
      "type": "SCALAR",
      "max": [
        319.0
      ],
      "min": [
        0.0
      ]
    },
    {
      "bufferView": 3,
      "componentType": 5126,
      "count": 320,
      "type": "VEC2",
      "max": [
        65.16032,
        46.36452
      ],
      "min": [
        -65.16032,
        0.0
      ]
    },
    {
      "bufferView": 4,
      "componentType": 5126,
      "count": 24,
      "type": "VEC3",
      "max": [
        30.27518,
        20.90667,
        0.11
      ],
      "min": [
        28.77518,
        20.84098,
        0.0
      ]
    },
    {
      "bufferView": 5,
      "componentType": 5126,
      "count": 24,
      "type": "VEC3",
      "max": [
        1.0,
        1.0,
        1.0
      ],
      "min": [
        -1.0,
        -1.0,
        -1.0
      ]
    },
    {
      "bufferView": 6,
      "componentType": 5123,
      "count": 36,
      "type": "SCALAR",
      "max": [
        23.0
      ],
      "min": [
        0.0
      ]
    },
    {
      "bufferView": 7,
      "componentType": 5126,
      "count": 24,
      "type": "VEC2",
      "max": [
        30.27518,
        20.90667
      ],
      "min": [
        -30.27518,
        0.0
      ]
    },
    {
      "bufferView": 8,
      "componentType": 5126,
      "count": 360,
      "type": "VEC3",
      "max": [
        65.16032,
        46.36452,
        0.1
      ],
      "min": [
        2.88727,
        20.67715,
        0.0
      ]
    },
    {
      "bufferView": 9,
      "componentType": 5126,
      "count": 360,
      "type": "VEC3",
      "max": [
        1.0,
        1.0,
        1.0
      ],
      "min": [
        -1.0,
        -1.0,
        -1.0
      ]
    },
    {
      "bufferView": 10,
      "componentType": 5123,
      "count": 432,
      "type": "SCALAR",
      "max": [
        359.0
      ],
      "min": [
        0.0
      ]
    },
    {
      "bufferView": 11,
      "componentType": 5126,
      "count": 360,
      "type": "VEC2",
      "max": [
        65.16032,
        46.36452
      ],
      "min": [
        -65.16032,
        0.0
      ]
    }
  ],
  "asset": {
    "generator": "hypar-gltf",
    "version": "2.0"
  },
  "buffers": [
    {
      "uri": "CirculationTest_0.bin",
      "byteLength": 24232
    }
  ],
  "bufferViews": [
    {
      "buffer": 0,
      "byteLength": 3840
    },
    {
      "buffer": 0,
      "byteOffset": 3840,
      "byteLength": 3840
    },
    {
      "buffer": 0,
      "byteOffset": 7680,
      "byteLength": 768
    },
    {
      "buffer": 0,
      "byteOffset": 8448,
      "byteLength": 2560
    },
    {
      "buffer": 0,
      "byteOffset": 11008,
      "byteLength": 288
    },
    {
      "buffer": 0,
      "byteOffset": 11296,
      "byteLength": 288
    },
    {
      "buffer": 0,
      "byteOffset": 11584,
      "byteLength": 72
    },
    {
      "buffer": 0,
      "byteOffset": 11656,
      "byteLength": 192
    },
    {
      "buffer": 0,
      "byteOffset": 11848,
      "byteLength": 4320
    },
    {
      "buffer": 0,
      "byteOffset": 16168,
      "byteLength": 4320
    },
    {
      "buffer": 0,
      "byteOffset": 20488,
      "byteLength": 864
    },
    {
      "buffer": 0,
      "byteOffset": 21352,
      "byteLength": 2880
    }
  ],
  "materials": [
    {
      "name": "b0b25adb-6683-4ac8-99e3-9039064d70f8",
      "extensions": {
        "KHR_materials_pbrSpecularGlossiness": {
          "diffuseFactor": [
            0.996,
            0.965,
            0.863,
            1.0
          ],
          "specularFactor": [
            0.1,
            0.1,
            0.1
          ],
          "glossinessFactor": 0.1
        }
      },
      "pbrMetallicRoughness": {
        "baseColorFactor": [
          0.996,
          0.965,
          0.863,
          1.0
        ]
      },
      "doubleSided": true
    }
  ],
  "meshes": [
    {
      "primitives": [
        {
          "attributes": {
            "NORMAL": 1,
            "POSITION": 0,
            "TEXCOORD_0": 3
          },
          "indices": 2,
          "material": 0
        }
      ],
      "name": "22153d9b-354c-4bda-b9e5-3acde965ca40_mesh"
    },
    {
      "primitives": [
        {
          "attributes": {
            "NORMAL": 5,
            "POSITION": 4,
            "TEXCOORD_0": 7
          },
          "indices": 6,
          "material": 0
        }
      ],
      "name": "d7635ac4-bc99-4e3b-8066-e7f786a34984_mesh"
    },
    {
      "primitives": [
        {
          "attributes": {
            "NORMAL": 9,
            "POSITION": 8,
            "TEXCOORD_0": 11
          },
          "indices": 10,
          "material": 0
        }
      ],
      "name": "3637e25c-01a9-416b-afab-4e3e25391a80_mesh"
    }
  ],
  "nodes": [
    {
      "children": [
        1,
        3,
        5
      ],
      "matrix": [
        1.0,
        0.0,
        0.0,
        0.0,
        0.0,
        6.123234E-17,
        -1.0,
        0.0,
        0.0,
        1.0,
        6.123234E-17,
        0.0,
        0.0,
        0.0,
        0.0,
        1.0
      ]
    },
    {
      "children": [
        2
      ]
    },
    {
      "mesh": 0
    },
    {
      "children": [
        4
      ]
    },
    {
      "mesh": 1
    },
    {
      "children": [
        6
      ]
    },
    {
      "mesh": 2
    }
  ],
  "scene": 0,
  "scenes": [
    {
      "nodes": [
        0
      ]
    }
  ]
}