{
  "extensionsUsed": [
    "KHR_materials_specular",
    "KHR_materials_ior",
    "KHR_materials_unlit",
    "HYPAR_info"
  ],
  "accessors": [
    {
      "bufferView": 0,
      "componentType": 5126,
      "count": 570,
      "type": "VEC3",
      "max": [
        92.11774,
        50.25992,
        0.005
      ],
      "min": [
        12.69671,
        7.91417,
        0.0
      ]
    },
    {
      "bufferView": 1,
      "componentType": 5126,
      "count": 570,
      "type": "VEC3",
      "max": [
        1.0,
        1.0,
        1.0
      ],
      "min": [
        -1.0,
        -1.0,
        -1.0
      ]
    },
    {
      "bufferView": 2,
      "componentType": 5123,
      "count": 1236,
      "type": "SCALAR",
      "max": [
        569.0
      ],
      "min": [
        0.0
      ]
    },
    {
      "bufferView": 3,
      "componentType": 5126,
      "count": 570,
      "type": "VEC2",
      "max": [
        92.11774,
        50.25992
      ],
      "min": [
        -92.76961,
        -8.8106E-12
      ]
    }
  ],
  "asset": {
    "generator": "hypar-gltf",
    "version": "2.0"
  },
  "buffers": [
    {
      "uri": "NewStyleCorridors_0.bin",
      "byteLength": 20712
    }
  ],
  "bufferViews": [
    {
      "buffer": 0,
      "byteLength": 6840
    },
    {
      "buffer": 0,
      "byteOffset": 6840,
      "byteLength": 6840
    },
    {
      "buffer": 0,
      "byteOffset": 13680,
      "byteLength": 2472
    },
    {
      "buffer": 0,
      "byteOffset": 16152,
      "byteLength": 4560
    }
  ],
  "materials": [
    {
      "name": "c3fb94f6-3a17-498a-a620-3ff5e07c1f4b",
      "extensions": {
        "KHR_materials_specular": {
          "specularFactor": 0.1,
          "specularColorFactor": [
            1.0,
            1.0,
            1.0
          ]
        },
        "KHR_materials_ior": {
          "ior": 1000
        }
      },
      "pbrMetallicRoughness": {
        "baseColorFactor": [
          0.9909246,
          0.92221993,
          0.71617067,
          1.0
        ],
        "metallicFactor": 0.0,
        "roughnessFactor": 0.9
      },
      "doubleSided": true
    }
  ],
  "meshes": [
    {
      "primitives": [
        {
          "attributes": {
            "NORMAL": 1,
            "POSITION": 0,
            "TEXCOORD_0": 3
          },
          "indices": 2,
          "material": 0
        }
      ],
      "name": "2763fb90-823a-434b-a069-f2289eaf9eee_mesh"
    }
  ],
  "nodes": [
    {
      "children": [
        1
      ],
      "matrix": [
        1.0,
        0.0,
        0.0,
        0.0,
        0.0,
        6.123234E-17,
        -1.0,
        0.0,
        0.0,
        1.0,
        6.123234E-17,
        0.0,
        0.0,
        0.0,
        0.0,
        1.0
      ]
    },
    {
      "children": [
        2
      ],
      "extensions": {
        "HYPAR_info": {
          "id": "2763fb90-823a-434b-a069-f2289eaf9eee"
        }
      }
    },
    {
      "mesh": 0
    }
  ],
  "scene": 0,
  "scenes": [
    {
      "nodes": [
        0
      ]
    }
  ]
}