{
  "extensionsUsed": [
    "KHR_materials_specular",
    "KHR_materials_ior",
    "KHR_materials_unlit",
    "HYPAR_info",
    "HYPAR_representation_info"
  ],
  "accessors": [
    {
      "bufferView": 0,
      "componentType": 5126,
      "count": 24,
      "type": "VEC3",
      "max": [
        0.38104397,
        0.381044,
        1.0668
      ],
      "min": [
        -0.38104382,
        -0.3810438,
        5.9240447E-15
      ]
    },
    {
      "bufferView": 1,
      "componentType": 5126,
      "count": 24,
      "type": "VEC3",
      "max": [
        1.0,
        1.0,
        1.0
      ],
      "min": [
        -1.0,
        -1.0,
        -1.0
      ]
    },
    {
      "bufferView": 2,
      "componentType": 5123,
      "count": 36,
      "type": "SCALAR",
      "max": [
        23.0
      ],
      "min": [
        0.0
      ]
    },
    {
      "bufferView": 3,
      "componentType": 5126,
      "count": 24,
      "type": "VEC2",
      "max": [
        0.381044,
        1.0668
      ],
      "min": [
        -0.381044,
        -0.3810438
      ]
    },
    {
      "bufferView": 4,
      "componentType": 5126,
      "count": 24,
      "type": "VEC3",
      "max": [
        0.26907626,
        0.29155096,
        0.99245423
      ],
      "min": [
        -0.26970118,
        -0.22535078,
        1.3710969E-05
      ]
    },
    {
      "bufferView": 5,
      "componentType": 5126,
      "count": 24,
      "type": "VEC3",
      "max": [
        1.0,
        1.0,
        1.0
      ],
      "min": [
        -1.0,
        -1.0,
        -1.0
      ]
    },
    {
      "bufferView": 6,
      "componentType": 5123,
      "count": 36,
      "type": "SCALAR",
      "max": [
        23.0
      ],
      "min": [
        0.0
      ]
    },
    {
      "bufferView": 7,
      "componentType": 5126,
      "count": 24,
      "type": "VEC2",
      "max": [
        0.29155096,
        0.99245423
      ],
      "min": [
        -0.29155096,
        -0.22535078
      ]
    }
  ],
  "asset": {
    "generator": "hypar-gltf",
    "version": "2.0"
  },
  "buffers": [
    {
      "uri": "OpenCollaborationLayoutTest_0.bin",
      "byteLength": 1680
    }
  ],
  "bufferViews": [
    {
      "buffer": 0,
      "byteLength": 288
    },
    {
      "buffer": 0,
      "byteOffset": 288,
      "byteLength": 288
    },
    {
      "buffer": 0,
      "byteOffset": 576,
      "byteLength": 72
    },
    {
      "buffer": 0,
      "byteOffset": 648,
      "byteLength": 192
    },
    {
      "buffer": 0,
      "byteOffset": 840,
      "byteLength": 288
    },
    {
      "buffer": 0,
      "byteOffset": 1128,
      "byteLength": 288
    },
    {
      "buffer": 0,
      "byteOffset": 1416,
      "byteLength": 72
    },
    {
      "buffer": 0,
      "byteOffset": 1488,
      "byteLength": 192
    }
  ],
  "materials": [
    {
      "name": "205ac329-f490-4268-885c-f55d7f0cefd4",
      "extensions": {
        "KHR_materials_specular": {
          "specularFactor": 0.1,
          "specularColorFactor": [
            1.0,
            1.0,
            1.0
          ]
        },
        "KHR_materials_ior": {
          "ior": 1000
        }
      },
      "pbrMetallicRoughness": {
        "baseColorFactor": [
          0.7874123,
          0.7874123,
          0.7874123,
          1.0
        ],
        "metallicFactor": 0.0,
        "roughnessFactor": 0.9
      }
    }
  ],
  "meshes": [
    {
      "primitives": [
        {
          "attributes": {
            "POSITION": 0,
            "NORMAL": 1,
            "TEXCOORD_0": 3
          },
          "indices": 2,
          "material": 0
        }
      ],
      "name": "ea4b2ac1-c130-4705-bef1-4a5a9fb3f0dd_mesh"
    },
    {
      "primitives": [
        {
          "attributes": {
            "POSITION": 4,
            "NORMAL": 5,
            "TEXCOORD_0": 7
          },
          "indices": 6,
          "material": 0
        }
      ],
      "name": "6df0d436-d330-4385-9319-11f167887711_mesh"
    }
  ],
  "nodes": [
    {
      "children": [
        1,
        2,
        3,
        4
      ],
      "matrix": [
        1.0,
        0.0,
        0.0,
        0.0,
        0.0,
        6.123234E-17,
        -1.0,
        0.0,
        0.0,
        1.0,
        6.123234E-17,
        0.0,
        0.0,
        0.0,
        0.0,
        1.0
      ]
    },
    {
      "matrix": [
        -1.8369701E-16,
        -1.0,
        0.0,
        0.0,
        1.0,
        -1.8369701E-16,
        0.0,
        0.0,
        0.0,
        0.0,
        1.0,
        0.0,
        -1.4742243,
        -0.6736047,
        -0.03,
        1.0
      ],
      "mesh": 0,
      "extensions": {
        "HYPAR_info": {
          "id": "0aa40ca3-cd14-4585-931b-c296a9332c0c"
        },
        "HYPAR_referenced_content": {
          "contentUrl": "https://hypar.io/user-static/373f7a04-827b-4c91-8edd-39d2676734d3.glb"
        }
      }
    },
    {
      "matrix": [
        0.9063078,
        -0.42261827,
        0.0,
        0.0,
        0.42261827,
        0.9063078,
        0.0,
        0.0,
        0.0,
        0.0,
        1.0,
        0.0,
        -1.3874028,
        -0.038442448,
        -0.03,
        1.0
      ],
      "mesh": 1,
      "extensions": {
        "HYPAR_info": {
          "id": "6cd95e21-ff1e-459f-8de5-f95649d65145"
        },
        "HYPAR_referenced_content": {
          "contentUrl": "https://hypar.io/user-static/9cb9555b-5c8a-4289-8dd1-662a0d355c40.glb"
        }
      }
    },
    {
      "matrix": [
        -1.8369701E-16,
        -1.0,
        0.0,
        0.0,
        1.0,
        -1.8369701E-16,
        0.0,
        0.0,
        0.0,
        0.0,
        1.0,
        0.0,
        -1.4742243,
        -8.827724,
        -0.03,
        1.0
      ],
      "mesh": 0,
      "extensions": {
        "HYPAR_info": {
          "id": "0b9718e1-f2c4-4833-9812-3d82d7a94650"
        },
        "HYPAR_referenced_content": {
          "contentUrl": "https://hypar.io/user-static/373f7a04-827b-4c91-8edd-39d2676734d3.glb"
        }
      }
    },
    {
      "matrix": [
        0.9063078,
        -0.42261827,
        0.0,
        0.0,
        0.42261827,
        0.9063078,
        0.0,
        0.0,
        0.0,
        0.0,
        1.0,
        0.0,
        -1.3874028,
        -8.192562,
        -0.03,
        1.0
      ],
      "mesh": 1,
      "extensions": {
        "HYPAR_info": {
          "id": "9048b7fd-b2dd-4bba-a680-28aa01bff81d"
        },
        "HYPAR_referenced_content": {
          "contentUrl": "https://hypar.io/user-static/9cb9555b-5c8a-4289-8dd1-662a0d355c40.glb"
        }
      }
    }
  ],
  "scene": 0,
  "scenes": [
    {
      "nodes": [
        0
      ]
    }
  ]
}