{
  "extensionsUsed": [
    "KHR_materials_specular",
    "KHR_materials_ior",
    "KHR_materials_unlit",
    "HYPAR_info"
  ],
  "accessors": [
    {
      "bufferView": 0,
      "componentType": 5126,
      "count": 24,
      "type": "VEC3",
      "max": [
        1.474,
        1.7788,
        1.0
      ],
      "min": [
        0.05,
        0.05,
        0.0
      ]
    },
    {
      "bufferView": 1,
      "componentType": 5126,
      "count": 24,
      "type": "VEC3",
      "max": [
        1.0,
        1.0,
        1.0
      ],
      "min": [
        -1.0,
        -1.0,
        -1.0
      ]
    },
    {
      "bufferView": 2,
      "componentType": 5123,
      "count": 36,
      "type": "SCALAR",
      "max": [
        23.0
      ],
      "min": [
        0.0
      ]
    },
    {
      "bufferView": 3,
      "componentType": 5126,
      "count": 24,
      "type": "VEC2",
      "max": [
        1.7788,
        1.7788
      ],
      "min": [
        -1.7788,
        0.0
      ]
    },
    {
      "bufferView": 4,
      "componentType": 5126,
      "count": 24,
      "type": "VEC3",
      "max": [
        1.474,
        1.7788,
        1.0
      ],
      "min": [
        0.05,
        0.05,
        0.0
      ]
    },
    {
      "bufferView": 5,
      "componentType": 5126,
      "count": 24,
      "type": "VEC3",
      "max": [
        1.0,
        1.0,
        1.0
      ],
      "min": [
        -1.0,
        -1.0,
        -1.0
      ]
    },
    {
      "bufferView": 6,
      "componentType": 5123,
      "count": 36,
      "type": "SCALAR",
      "max": [
        23.0
      ],
      "min": [
        0.0
      ]
    },
    {
      "bufferView": 7,
      "componentType": 5126,
      "count": 24,
      "type": "VEC2",
      "max": [
        1.7788,
        1.7788
      ],
      "min": [
        -1.7788,
        0.0
      ]
    },
    {
      "bufferView": 8,
      "componentType": 5126,
      "count": 24,
      "type": "VEC3",
      "max": [
        1.474,
        1.7788,
        1.0
      ],
      "min": [
        0.05,
        0.05,
        0.0
      ]
    },
    {
      "bufferView": 9,
      "componentType": 5126,
      "count": 24,
      "type": "VEC3",
      "max": [
        1.0,
        1.0,
        1.0
      ],
      "min": [
        -1.0,
        -1.0,
        -1.0
      ]
    },
    {
      "bufferView": 10,
      "componentType": 5123,
      "count": 36,
      "type": "SCALAR",
      "max": [
        23.0
      ],
      "min": [
        0.0
      ]
    },
    {
      "bufferView": 11,
      "componentType": 5126,
      "count": 24,
      "type": "VEC2",
      "max": [
        1.7788,
        1.7788
      ],
      "min": [
        -1.7788,
        0.0
      ]
    },
    {
      "bufferView": 12,
      "componentType": 5126,
      "count": 24,
      "type": "VEC3",
      "max": [
        1.474,
        1.7788,
        1.0
      ],
      "min": [
        0.05,
        0.05,
        0.0
      ]
    },
    {
      "bufferView": 13,
      "componentType": 5126,
      "count": 24,
      "type": "VEC3",
      "max": [
        1.0,
        1.0,
        1.0
      ],
      "min": [
        -1.0,
        -1.0,
        -1.0
      ]
    },
    {
      "bufferView": 14,
      "componentType": 5123,
      "count": 36,
      "type": "SCALAR",
      "max": [
        23.0
      ],
      "min": [
        0.0
      ]
    },
    {
      "bufferView": 15,
      "componentType": 5126,
      "count": 24,
      "type": "VEC2",
      "max": [
        1.7788,
        1.7788
      ],
      "min": [
        -1.7788,
        0.0
      ]
    }
  ],
  "asset": {
    "generator": "hypar-gltf",
    "version": "2.0"
  },
  "buffers": [
    {
      "uri": "OpenOfficeLayoutTest_0.bin",
      "byteLength": 3360
    }
  ],
  "bufferViews": [
    {
      "buffer": 0,
      "byteLength": 288
    },
    {
      "buffer": 0,
      "byteOffset": 288,
      "byteLength": 288
    },
    {
      "buffer": 0,
      "byteOffset": 576,
      "byteLength": 72
    },
    {
      "buffer": 0,
      "byteOffset": 648,
      "byteLength": 192
    },
    {
      "buffer": 0,
      "byteOffset": 840,
      "byteLength": 288
    },
    {
      "buffer": 0,
      "byteOffset": 1128,
      "byteLength": 288
    },
    {
      "buffer": 0,
      "byteOffset": 1416,
      "byteLength": 72
    },
    {
      "buffer": 0,
      "byteOffset": 1488,
      "byteLength": 192
    },
    {
      "buffer": 0,
      "byteOffset": 1680,
      "byteLength": 288
    },
    {
      "buffer": 0,
      "byteOffset": 1968,
      "byteLength": 288
    },
    {
      "buffer": 0,
      "byteOffset": 2256,
      "byteLength": 72
    },
    {
      "buffer": 0,
      "byteOffset": 2328,
      "byteLength": 192
    },
    {
      "buffer": 0,
      "byteOffset": 2520,
      "byteLength": 288
    },
    {
      "buffer": 0,
      "byteOffset": 2808,
      "byteLength": 288
    },
    {
      "buffer": 0,
      "byteOffset": 3096,
      "byteLength": 72
    },
    {
      "buffer": 0,
      "byteOffset": 3168,
      "byteLength": 192
    }
  ],
  "materials": [
    {
      "name": "ba7cf6fd-ee25-4cdf-ad1b-2b098f686186",
      "extensions": {
        "KHR_materials_specular": {
          "specularFactor": 0.1,
          "specularColorFactor": [
            1.0,
            1.0,
            1.0
          ]
        },
        "KHR_materials_ior": {
          "ior": 1000
        }
      },
      "pbrMetallicRoughness": {
        "baseColorFactor": [
          0.44798842,
          0.44798842,
          0.44798842,
          1.0
        ],
        "metallicFactor": 0.0,
        "roughnessFactor": 0.9
      }
    }
  ],
  "meshes": [
    {
      "primitives": [
        {
          "attributes": {
            "NORMAL": 1,
            "POSITION": 0,
            "TEXCOORD_0": 3
          },
          "indices": 2,
          "material": 0
        }
      ],
      "name": "1be47fb6-0cca-4e67-a269-e75a87c2dd73_mesh"
    },
    {
      "primitives": [
        {
          "attributes": {
            "NORMAL": 5,
            "POSITION": 4,
            "TEXCOORD_0": 7
          },
          "indices": 6,
          "material": 0
        }
      ],
      "name": "ef832fb1-f927-49bd-876e-901ec0d65799_mesh"
    },
    {
      "primitives": [
        {
          "attributes": {
            "NORMAL": 9,
            "POSITION": 8,
            "TEXCOORD_0": 11
          },
          "indices": 10,
          "material": 0
        }
      ],
      "name": "35a9b335-44e7-4f81-be0d-d4c30987f2fe_mesh"
    },
    {
      "primitives": [
        {
          "attributes": {
            "NORMAL": 13,
            "POSITION": 12,
            "TEXCOORD_0": 15
          },
          "indices": 14,
          "material": 0
        }
      ],
      "name": "aaeb82d8-d9d7-42ec-8a67-674de3c1ddf0_mesh"
    }
  ],
  "nodes": [
    {
      "children": [
        1,
        2,
        3,
        4,
        5,
        6,
        7,
        8,
        9,
        10,
        11,
        12,
        13,
        14,
        15,
        16,
        17,
        18,
        19,
        20,
        21
      ],
      "matrix": [
        1.0,
        0.0,
        0.0,
        0.0,
        0.0,
        6.123234E-17,
        -1.0,
        0.0,
        0.0,
        1.0,
        6.123234E-17,
        0.0,
        0.0,
        0.0,
        0.0,
        1.0
      ]
    },
    {
      "matrix": [
        -6.123234E-17,
        -1.0,
        0.0,
        0.0,
        1.0,
        -6.123234E-17,
        0.0,
        0.0,
        0.0,
        0.0,
        1.0,
        0.0,
        -17.795431,
        9.15932,
        0.0,
        1.0
      ],
      "mesh": 0,
      "extensions": {
        "HYPAR_info": {
          "id": "e81b55ca-5f56-4088-ae1b-ba6f8e6060f8"
        }
      }
    },
    {
      "matrix": [
        -6.123234E-17,
        -1.0,
        0.0,
        0.0,
        1.0,
        -6.123234E-17,
        0.0,
        0.0,
        0.0,
        0.0,
        1.0,
        0.0,
        -17.795431,
        7.63532,
        0.0,
        1.0
      ],
      "mesh": 0,
      "extensions": {
        "HYPAR_info": {
          "id": "6bc8adc1-5457-46f2-bac8-b1d0404de951"
        }
      }
    },
    {
      "matrix": [
        -6.123234E-17,
        1.0,
        0.0,
        0.0,
        -1.0,
        -6.123234E-17,
        0.0,
        0.0,
        0.0,
        0.0,
        1.0,
        0.0,
        -17.795431,
        7.63532,
        0.0,
        1.0
      ],
      "mesh": 0,
      "extensions": {
        "HYPAR_info": {
          "id": "5a7f8434-2313-40eb-badf-9db72a24af78"
        }
      }
    },
    {
      "matrix": [
        -6.123234E-17,
        1.0,
        0.0,
        0.0,
        -1.0,
        -6.123234E-17,
        0.0,
        0.0,
        0.0,
        0.0,
        1.0,
        0.0,
        -17.795431,
        6.11132,
        0.0,
        1.0
      ],
      "mesh": 0,
      "extensions": {
        "HYPAR_info": {
          "id": "d04b5d74-48de-438f-be4f-38295c34c8cb"
        }
      }
    },
    {
      "matrix": [
        -0.73105526,
        0.6823183,
        0.0,
        0.0,
        -0.6823183,
        -0.73105526,
        0.0,
        0.0,
        0.0,
        0.0,
        1.0,
        0.0,
        -21.565968,
        5.7803307,
        0.0,
        1.0
      ],
      "mesh": 1,
      "extensions": {
        "HYPAR_info": {
          "id": "16a73f66-e455-45d1-831c-f1f929d9193d"
        }
      }
    },
    {
      "matrix": [
        -1.0,
        6.123234E-17,
        0.0,
        0.0,
        -6.123234E-17,
        -1.0,
        0.0,
        0.0,
        0.0,
        0.0,
        1.0,
        0.0,
        -23.838816,
        -3.9043593,
        0.0,
        1.0
      ],
      "mesh": 2,
      "extensions": {
        "HYPAR_info": {
          "id": "bece25bc-1dcb-48e1-822e-60a1c420153b"
        }
      }
    },
    {
      "matrix": [
        1.0,
        6.123234E-17,
        0.0,
        0.0,
        -6.123234E-17,
        1.0,
        0.0,
        0.0,
        0.0,
        0.0,
        1.0,
        0.0,
        -25.362814,
        -3.9043593,
        0.0,
        1.0
      ],
      "mesh": 2,
      "extensions": {
        "HYPAR_info": {
          "id": "5fc89888-0b46-4042-a342-74aaf0c62f69"
        }
      }
    },
    {
      "matrix": [
        1.0,
        6.123234E-17,
        0.0,
        0.0,
        -6.123234E-17,
        1.0,
        0.0,
        0.0,
        0.0,
        0.0,
        1.0,
        0.0,
        -26.886814,
        -3.9043593,
        0.0,
        1.0
      ],
      "mesh": 2,
      "extensions": {
        "HYPAR_info": {
          "id": "09a94dd7-ce5d-41f5-ae5c-76f1b8344f59"
        }
      }
    },
    {
      "matrix": [
        -1.0,
        6.123234E-17,
        0.0,
        0.0,
        -6.123234E-17,
        -1.0,
        0.0,
        0.0,
        0.0,
        0.0,
        1.0,
        0.0,
        -23.838816,
        0.75324064,
        0.0,
        1.0
      ],
      "mesh": 2,
      "extensions": {
        "HYPAR_info": {
          "id": "87683f60-8f86-426e-bab4-04eb94a4ffae"
        }
      }
    },
    {
      "matrix": [
        -1.0,
        6.123234E-17,
        0.0,
        0.0,
        -6.123234E-17,
        -1.0,
        0.0,
        0.0,
        0.0,
        0.0,
        1.0,
        0.0,
        -25.362814,
        0.75324064,
        0.0,
        1.0
      ],
      "mesh": 2,
      "extensions": {
        "HYPAR_info": {
          "id": "9d683f23-f86e-4401-a2e1-6e23ddc98b94"
        }
      }
    },
    {
      "matrix": [
        -1.0,
        6.123234E-17,
        0.0,
        0.0,
        -6.123234E-17,
        -1.0,
        0.0,
        0.0,
        0.0,
        0.0,
        1.0,
        0.0,
        -26.886814,
        0.75324064,
        0.0,
        1.0
      ],
      "mesh": 2,
      "extensions": {
        "HYPAR_info": {
          "id": "6282f25e-52a5-4d7b-bde7-1172019f4466"
        }
      }
    },
    {
      "matrix": [
        1.0,
        6.123234E-17,
        0.0,
        0.0,
        -6.123234E-17,
        1.0,
        0.0,
        0.0,
        0.0,
        0.0,
        1.0,
        0.0,
        -25.362814,
        0.75324064,
        0.0,
        1.0
      ],
      "mesh": 2,
      "extensions": {
        "HYPAR_info": {
          "id": "927d8844-c37a-4d08-91b4-c78cca8c2447"
        }
      }
    },
    {
      "matrix": [
        1.0,
        6.123234E-17,
        0.0,
        0.0,
        -6.123234E-17,
        1.0,
        0.0,
        0.0,
        0.0,
        0.0,
        1.0,
        0.0,
        -26.886814,
        0.75324064,
        0.0,
        1.0
      ],
      "mesh": 2,
      "extensions": {
        "HYPAR_info": {
          "id": "d10256c0-fdd3-490f-b0ef-93356dd6de52"
        }
      }
    },
    {
      "matrix": [
        1.0,
        6.123234E-17,
        0.0,
        0.0,
        -6.123234E-17,
        1.0,
        0.0,
        0.0,
        0.0,
        0.0,
        1.0,
        0.0,
        -28.410814,
        0.75324064,
        0.0,
        1.0
      ],
      "mesh": 2,
      "extensions": {
        "HYPAR_info": {
          "id": "63373017-b838-4942-8c23-da4e7da40882"
        }
      }
    },
    {
      "matrix": [
        -5.706944E-14,
        -1.0,
        0.0,
        0.0,
        1.0,
        -5.706944E-14,
        0.0,
        0.0,
        0.0,
        0.0,
        1.0,
        0.0,
        -15.86017,
        -5.012,
        0.0,
        1.0
      ],
      "mesh": 3,
      "extensions": {
        "HYPAR_info": {
          "id": "416c6357-2635-404d-98bb-45125904da9e"
        }
      }
    },
    {
      "matrix": [
        -5.706944E-14,
        -1.0,
        0.0,
        0.0,
        1.0,
        -5.706944E-14,
        0.0,
        0.0,
        0.0,
        0.0,
        1.0,
        0.0,
        -15.86017,
        -6.536,
        0.0,
        1.0
      ],
      "mesh": 3,
      "extensions": {
        "HYPAR_info": {
          "id": "ebe4bde3-2660-41f2-910c-44f9604a07ea"
        }
      }
    },
    {
      "matrix": [
        5.694698E-14,
        1.0,
        0.0,
        0.0,
        -1.0,
        5.694698E-14,
        0.0,
        0.0,
        0.0,
        0.0,
        1.0,
        0.0,
        -15.86017,
        -6.536,
        0.0,
        1.0
      ],
      "mesh": 3,
      "extensions": {
        "HYPAR_info": {
          "id": "5b83c5dc-5e4c-429b-b6e5-411c96dbc793"
        }
      }
    },
    {
      "matrix": [
        5.694698E-14,
        1.0,
        0.0,
        0.0,
        -1.0,
        5.694698E-14,
        0.0,
        0.0,
        0.0,
        0.0,
        1.0,
        0.0,
        -15.86017,
        -8.06,
        0.0,
        1.0
      ],
      "mesh": 3,
      "extensions": {
        "HYPAR_info": {
          "id": "d5c26b2e-454b-4236-8f4a-d5cf3b2325cb"
        }
      }
    },
    {
      "matrix": [
        -5.706944E-14,
        -1.0,
        0.0,
        0.0,
        1.0,
        -5.706944E-14,
        0.0,
        0.0,
        0.0,
        0.0,
        1.0,
        0.0,
        -20.51777,
        -5.012,
        0.0,
        1.0
      ],
      "mesh": 3,
      "extensions": {
        "HYPAR_info": {
          "id": "564b98f1-a97d-4021-8ce0-b18961d81079"
        }
      }
    },
    {
      "matrix": [
        -5.706944E-14,
        -1.0,
        0.0,
        0.0,
        1.0,
        -5.706944E-14,
        0.0,
        0.0,
        0.0,
        0.0,
        1.0,
        0.0,
        -20.51777,
        -6.536,
        0.0,
        1.0
      ],
      "mesh": 3,
      "extensions": {
        "HYPAR_info": {
          "id": "4e33a6a0-a2a7-4bd6-b797-4526014cb498"
        }
      }
    },
    {
      "matrix": [
        5.694698E-14,
        1.0,
        0.0,
        0.0,
        -1.0,
        5.694698E-14,
        0.0,
        0.0,
        0.0,
        0.0,
        1.0,
        0.0,
        -20.51777,
        -6.536,
        0.0,
        1.0
      ],
      "mesh": 3,
      "extensions": {
        "HYPAR_info": {
          "id": "17e9d938-11d0-406e-9ce1-7aa3862bc819"
        }
      }
    }
  ],
  "scene": 0,
  "scenes": [
    {
      "nodes": [
        0
      ]
    }
  ]
}